<?xml version="1.0" encoding="UTF-8"?>
<!DOCTYPE svg PUBLIC "-//W3C//DTD SVG 1.1//EN" "http://www.w3.org/Graphics/SVG/1.1/DTD/svg11.dtd">
<svg xmlns="http://www.w3.org/2000/svg" version="1.1" width="408px" height="425px" style="shape-rendering:geometricPrecision; text-rendering:geometricPrecision; image-rendering:optimizeQuality; fill-rule:evenodd; clip-rule:evenodd" xmlns:xlink="http://www.w3.org/1999/xlink">
<g><path style="opacity:0.989" fill="#c1060a" d="M 182.5,-0.5 C 196.833,-0.5 211.167,-0.5 225.5,-0.5C 280.616,4.05557 325.95,27.0556 361.5,68.5C 361.738,70.4044 362.738,71.7377 364.5,72.5C 364.5,72.8333 364.5,73.1667 364.5,73.5C 365.864,75.1911 367.197,76.8577 368.5,78.5C 369.338,78.8417 369.672,79.5084 369.5,80.5C 370.846,82.5368 372.18,84.5368 373.5,86.5C 374.492,86.3284 375.158,86.6618 375.5,87.5C 375.023,90.2406 376.023,92.5739 378.5,94.5C 379.659,98.1513 381.326,101.485 383.5,104.5C 386.364,111.757 389.03,119.09 391.5,126.5C 385.864,124.697 380.864,121.864 376.5,118C 369.075,116.542 362.909,113.042 358,107.5C 357.667,107.833 357.333,108.167 357,108.5C 354.929,107.636 353.262,106.303 352,104.5C 351.667,104.833 351.333,105.167 351,105.5C 348.658,104.21 346.324,102.21 344,99.5C 343.396,101.686 342.23,101.852 340.5,100C 341.167,99.6667 341.833,99.3333 342.5,99C 339.953,98.9326 337.786,98.0993 336,96.5C 335.667,96.8333 335.333,97.1667 335,97.5C 333,95.5 331,93.5 329,91.5C 328.667,92.1667 328.333,92.8333 328,93.5C 326.458,91.6961 324.791,90.0294 323,88.5C 322.586,88.9574 322.086,89.2907 321.5,89.5C 319.509,87.3892 317.509,86.0558 315.5,85.5C 314.914,85.7093 314.414,86.0426 314,86.5C 311.085,84.3303 308.085,81.6637 305,78.5C 302.035,78.9111 299.368,77.9111 297,75.5C 296.667,75.8333 296.333,76.1667 296,76.5C 291.546,71.9319 286.546,68.9319 281,67.5C 280.333,63.5 279.667,63.5 279,67.5C 278.446,63.5723 276.446,62.239 273,63.5C 272.085,62.6721 271.419,61.6721 271,60.5C 270.667,60.8333 270.333,61.1667 270,61.5C 267.333,59.5 264.667,57.5 262,55.5C 261.577,56.9561 260.744,57.4561 259.5,57C 260.833,56.3333 260.833,55.6667 259.5,55C 256.7,53.5153 254.034,51.8486 251.5,50C 244.444,47.7761 237.611,44.2761 231,39.5C 230.667,39.8333 230.333,40.1667 230,40.5C 228.209,38.9706 226.542,37.3039 225,35.5C 224.667,35.8333 224.333,36.1667 224,36.5C 219.032,32.6126 213.866,29.7792 208.5,28C 209.167,27.6667 209.833,27.3333 210.5,27C 208.122,26.4888 205.788,25.8221 203.5,25C 204.167,24.6667 204.833,24.3333 205.5,24C 203.08,24.9881 200.747,24.6548 198.5,23C 187.331,15.3182 176.331,8.98482 165.5,4C 166.056,3.61742 166.389,3.11742 166.5,2.5C 171.811,1.35471 177.144,0.354713 182.5,-0.5 Z"/></g>
<g><path style="opacity:0.998" fill="#cb1e0f" d="M 129.5,12.5 C 132.852,14.597 136.352,17.2637 140,20.5C 140.414,20.0426 140.914,19.7093 141.5,19.5C 147.131,22.6347 152.631,25.968 158,29.5C 158.718,28.5494 159.551,28.3828 160.5,29C 163.757,31.7558 166.591,34.2558 169,36.5C 170.333,36.5 171.667,36.5 173,36.5C 174.667,37.8333 176.333,39.1667 178,40.5C 178.333,40.1667 178.667,39.8333 179,39.5C 185.593,44.3062 192.593,48.6395 200,52.5C 200.333,52.1667 200.667,51.8333 201,51.5C 201.84,54.4637 202.84,54.797 204,52.5C 205.236,54.5384 207.069,55.7051 209.5,56C 209.167,56.3333 208.833,56.6667 208.5,57C 209.993,58.3681 211.493,58.5348 213,57.5C 214.093,59.3492 215.426,61.0158 217,62.5C 218.43,62.6938 219.93,62.6938 221.5,62.5C 223.952,65.0595 226.952,66.5595 230.5,67C 226.815,67.9145 227.148,68.5811 231.5,69C 231.167,69.3333 230.833,69.6667 230.5,70C 235.174,71.0926 239.008,72.9259 242,75.5C 242.333,75.1667 242.667,74.8333 243,74.5C 246.058,76.395 249.224,78.0616 252.5,79.5C 252.351,80.552 252.517,81.552 253,82.5C 253.333,82.1667 253.667,81.8333 254,81.5C 255.333,82.8333 256.667,84.1667 258,85.5C 260.54,84.1235 262.54,84.7902 264,87.5C 264.718,86.5494 265.551,86.3828 266.5,87C 269.977,89.4678 273.477,91.9678 277,94.5C 277.333,94.1667 277.667,93.8333 278,93.5C 282.623,97.588 287.623,100.921 293,103.5C 293.333,103.167 293.667,102.833 294,102.5C 295.525,105.77 297.858,106.77 301,105.5C 301.374,106.416 301.874,107.25 302.5,108C 305.625,109.473 308.459,111.307 311,113.5C 311.718,112.549 312.551,112.383 313.5,113C 317.249,116.94 321.915,119.607 327.5,121C 328.126,121.75 328.626,122.584 329,123.5C 329.333,123.167 329.667,122.833 330,122.5C 333.28,124.119 336.28,126.119 339,128.5C 339.333,128.167 339.667,127.833 340,127.5C 341.57,128.614 342.903,129.947 344,131.5C 344.333,131.167 344.667,130.833 345,130.5C 346.144,132.917 347.81,133.584 350,132.5C 350.333,133.5 350.667,134.5 351,135.5C 351.333,135.167 351.667,134.833 352,134.5C 354.034,136.032 356.201,137.365 358.5,138.5C 359.086,138.291 359.586,137.957 360,137.5C 362.27,139.997 364.604,142.33 367,144.5C 369.19,143.416 370.856,144.083 372,146.5C 374.09,145.209 375.424,145.876 376,148.5C 376.333,148.167 376.667,147.833 377,147.5C 380.577,150.067 384.41,152.234 388.5,154C 389.833,154.667 389.833,155.333 388.5,156C 392.183,156.351 395.85,157.518 399.5,159.5C 402.404,173.209 403.737,187.209 403.5,201.5C 403.019,198.218 402.019,195.051 400.5,192C 397.888,191.361 395.554,190.194 393.5,188.5C 392.914,188.709 392.414,189.043 392,189.5C 390.12,187.047 387.787,185.047 385,183.5C 384.667,184.167 384.333,184.833 384,185.5C 383.316,183.641 382.316,181.974 381,180.5C 379.23,181.276 377.397,181.11 375.5,180C 370.078,176.766 364.745,173.266 359.5,169.5C 358.833,169.833 358.167,170.167 357.5,170.5C 352.03,166.985 346.53,163.319 341,159.5C 339.284,160.552 338.284,159.886 338,157.5C 337.586,157.957 337.086,158.291 336.5,158.5C 335.667,157.5 334.833,156.5 334,155.5C 333.667,156.167 333.333,156.833 333,157.5C 330.738,155.616 328.572,153.616 326.5,151.5C 325.914,151.709 325.414,152.043 325,152.5C 316.837,146.501 308.004,141.667 298.5,138C 299.167,137.667 299.833,137.333 300.5,137C 298.598,136.801 297.098,135.967 296,134.5C 292.581,135.468 290.248,134.135 289,130.5C 287.667,130.5 286.333,130.5 285,130.5C 281.728,128.892 278.728,126.892 276,124.5C 274.667,124.5 273.333,124.5 272,124.5C 269.599,121.509 266.266,118.842 262,116.5C 261.667,116.833 261.333,117.167 261,117.5C 259.2,115.683 257.034,114.516 254.5,114C 251.833,111.658 249,109.491 246,107.5C 245,107.833 244,108.167 243,108.5C 241,106.5 239,104.5 237,102.5C 232.663,102.001 228.663,100.001 225,96.5C 223.56,95.8524 222.06,95.5191 220.5,95.5C 220.833,94.1667 221.167,92.8333 221.5,91.5C 225.157,87.2246 226.324,82.2246 225,76.5C 223.786,74.9512 222.286,73.7845 220.5,73C 206.121,69.5813 191.788,69.748 177.5,73.5C 177.918,72.7784 178.584,72.2784 179.5,72C 178.333,71.5 177.5,70.6667 177,69.5C 176.667,70.1667 176.333,70.8333 176,71.5C 171,68.1667 166,64.8333 161,61.5C 160,61.8333 159,62.1667 158,62.5C 155.344,59.9337 152.844,57.9337 150.5,56.5C 148.922,55.7022 147.256,55.2022 145.5,55C 146.863,52.8707 146.529,52.3707 144.5,53.5C 141.678,52.8514 139.845,51.1847 139,48.5C 132.841,47.5963 127.175,44.9297 122,40.5C 120.16,41.8331 119.66,41.6665 120.5,40C 119.207,39.51 117.873,39.3433 116.5,39.5C 116.649,38.448 116.483,37.448 116,36.5C 115.667,36.8333 115.333,37.1667 115,37.5C 113.665,35.3952 111.998,34.7286 110,35.5C 108.415,34.6243 107.415,33.2909 107,31.5C 106.667,31.8333 106.333,32.1667 106,32.5C 103.222,30.8477 100.389,29.5143 97.5,28.5C 107.291,21.6045 117.958,16.2711 129.5,12.5 Z"/></g>
<g><path style="opacity:0.996" fill="#d12d12" d="M 97.5,28.5 C 100.389,29.5143 103.222,30.8477 106,32.5C 106.333,32.1667 106.667,31.8333 107,31.5C 107.415,33.2909 108.415,34.6243 110,35.5C 111.998,34.7286 113.665,35.3952 115,37.5C 115.333,37.1667 115.667,36.8333 116,36.5C 116.483,37.448 116.649,38.448 116.5,39.5C 117.873,39.3433 119.207,39.51 120.5,40C 119.66,41.6665 120.16,41.8331 122,40.5C 127.175,44.9297 132.841,47.5963 139,48.5C 139.845,51.1847 141.678,52.8514 144.5,53.5C 146.529,52.3707 146.863,52.8707 145.5,55C 147.256,55.2022 148.922,55.7022 150.5,56.5C 152.844,57.9337 155.344,59.9337 158,62.5C 159,62.1667 160,61.8333 161,61.5C 166,64.8333 171,68.1667 176,71.5C 176.333,70.8333 176.667,70.1667 177,69.5C 177.5,70.6667 178.333,71.5 179.5,72C 178.584,72.2784 177.918,72.7784 177.5,73.5C 166.706,76.3199 156.373,80.3199 146.5,85.5C 145.538,83.0144 144.705,83.0144 144,85.5C 142.333,83.8333 140.667,82.1667 139,80.5C 137.293,81.1383 135.46,81.1383 133.5,80.5C 133.649,79.448 133.483,78.448 133,77.5C 132.667,77.8333 132.333,78.1667 132,78.5C 129.986,76.8171 128.32,74.8171 127,72.5C 126.311,73.3567 125.478,74.0233 124.5,74.5C 123.673,72.838 122.507,71.5046 121,70.5C 120.344,74.0016 119.011,74.0016 117,70.5C 116.667,70.8333 116.333,71.1667 116,71.5C 114.731,66.5221 111.731,64.5221 107,65.5C 106.276,63.0411 104.943,62.0411 103,62.5C 101,61.8333 99.6667,60.5 99,58.5C 98.6667,58.8333 98.3333,59.1667 98,59.5C 97.6924,58.6919 97.1924,58.0253 96.5,57.5C 91.1392,56.2202 86.6392,53.5535 83,49.5C 82.3333,50.1667 81.6667,50.8333 81,51.5C 79.786,49.9512 78.286,48.7845 76.5,48C 76.7358,46.5491 76.7358,45.0491 76.5,43.5C 82.6595,37.3432 89.6595,32.3432 97.5,28.5 Z"/></g>
<g><path style="opacity:1" fill="#c6120c" d="M 166.5,2.5 C 166.389,3.11742 166.056,3.61742 165.5,4C 176.331,8.98482 187.331,15.3182 198.5,23C 200.747,24.6548 203.08,24.9881 205.5,24C 204.833,24.3333 204.167,24.6667 203.5,25C 205.788,25.8221 208.122,26.4888 210.5,27C 209.833,27.3333 209.167,27.6667 208.5,28C 213.866,29.7792 219.032,32.6126 224,36.5C 224.333,36.1667 224.667,35.8333 225,35.5C 226.542,37.3039 228.209,38.9706 230,40.5C 230.333,40.1667 230.667,39.8333 231,39.5C 237.611,44.2761 244.444,47.7761 251.5,50C 254.034,51.8486 256.7,53.5153 259.5,55C 260.833,55.6667 260.833,56.3333 259.5,57C 260.744,57.4561 261.577,56.9561 262,55.5C 264.667,57.5 267.333,59.5 270,61.5C 270.333,61.1667 270.667,60.8333 271,60.5C 271.419,61.6721 272.085,62.6721 273,63.5C 276.446,62.239 278.446,63.5723 279,67.5C 279.667,63.5 280.333,63.5 281,67.5C 286.546,68.9319 291.546,71.9319 296,76.5C 296.333,76.1667 296.667,75.8333 297,75.5C 299.368,77.9111 302.035,78.9111 305,78.5C 308.085,81.6637 311.085,84.3303 314,86.5C 314.414,86.0426 314.914,85.7093 315.5,85.5C 317.509,86.0558 319.509,87.3892 321.5,89.5C 322.086,89.2907 322.586,88.9574 323,88.5C 324.791,90.0294 326.458,91.6961 328,93.5C 328.333,92.8333 328.667,92.1667 329,91.5C 331,93.5 333,95.5 335,97.5C 335.333,97.1667 335.667,96.8333 336,96.5C 337.786,98.0993 339.953,98.9326 342.5,99C 341.833,99.3333 341.167,99.6667 340.5,100C 342.23,101.852 343.396,101.686 344,99.5C 346.324,102.21 348.658,104.21 351,105.5C 351.333,105.167 351.667,104.833 352,104.5C 353.262,106.303 354.929,107.636 357,108.5C 357.333,108.167 357.667,107.833 358,107.5C 362.909,113.042 369.075,116.542 376.5,118C 380.864,121.864 385.864,124.697 391.5,126.5C 395.261,137.213 397.928,148.213 399.5,159.5C 395.85,157.518 392.183,156.351 388.5,156C 389.833,155.333 389.833,154.667 388.5,154C 384.41,152.234 380.577,150.067 377,147.5C 376.667,147.833 376.333,148.167 376,148.5C 375.424,145.876 374.09,145.209 372,146.5C 370.856,144.083 369.19,143.416 367,144.5C 364.604,142.33 362.27,139.997 360,137.5C 359.586,137.957 359.086,138.291 358.5,138.5C 356.201,137.365 354.034,136.032 352,134.5C 351.667,134.833 351.333,135.167 351,135.5C 350.667,134.5 350.333,133.5 350,132.5C 347.81,133.584 346.144,132.917 345,130.5C 344.667,130.833 344.333,131.167 344,131.5C 342.903,129.947 341.57,128.614 340,127.5C 339.667,127.833 339.333,128.167 339,128.5C 336.28,126.119 333.28,124.119 330,122.5C 329.667,122.833 329.333,123.167 329,123.5C 328.626,122.584 328.126,121.75 327.5,121C 321.915,119.607 317.249,116.94 313.5,113C 312.551,112.383 311.718,112.549 311,113.5C 308.459,111.307 305.625,109.473 302.5,108C 301.874,107.25 301.374,106.416 301,105.5C 297.858,106.77 295.525,105.77 294,102.5C 293.667,102.833 293.333,103.167 293,103.5C 287.623,100.921 282.623,97.588 278,93.5C 277.667,93.8333 277.333,94.1667 277,94.5C 273.477,91.9678 269.977,89.4678 266.5,87C 265.551,86.3828 264.718,86.5494 264,87.5C 262.54,84.7902 260.54,84.1235 258,85.5C 256.667,84.1667 255.333,82.8333 254,81.5C 253.667,81.8333 253.333,82.1667 253,82.5C 252.517,81.552 252.351,80.552 252.5,79.5C 249.224,78.0616 246.058,76.395 243,74.5C 242.667,74.8333 242.333,75.1667 242,75.5C 239.008,72.9259 235.174,71.0926 230.5,70C 230.833,69.6667 231.167,69.3333 231.5,69C 227.148,68.5811 226.815,67.9145 230.5,67C 226.952,66.5595 223.952,65.0595 221.5,62.5C 219.93,62.6938 218.43,62.6938 217,62.5C 215.426,61.0158 214.093,59.3492 213,57.5C 211.493,58.5348 209.993,58.3681 208.5,57C 208.833,56.6667 209.167,56.3333 209.5,56C 207.069,55.7051 205.236,54.5384 204,52.5C 202.84,54.797 201.84,54.4637 201,51.5C 200.667,51.8333 200.333,52.1667 200,52.5C 192.593,48.6395 185.593,44.3062 179,39.5C 178.667,39.8333 178.333,40.1667 178,40.5C 176.333,39.1667 174.667,37.8333 173,36.5C 171.667,36.5 170.333,36.5 169,36.5C 166.591,34.2558 163.757,31.7558 160.5,29C 159.551,28.3828 158.718,28.5494 158,29.5C 152.631,25.968 147.131,22.6347 141.5,19.5C 140.914,19.7093 140.414,20.0426 140,20.5C 136.352,17.2637 132.852,14.597 129.5,12.5C 141.274,7.47124 153.607,4.13791 166.5,2.5 Z"/></g>
<g><path style="opacity:0.996" fill="#d53915" d="M 76.5,43.5 C 76.7358,45.0491 76.7358,46.5491 76.5,48C 78.286,48.7845 79.786,49.9512 81,51.5C 81.6667,50.8333 82.3333,50.1667 83,49.5C 86.6392,53.5535 91.1392,56.2202 96.5,57.5C 97.1924,58.0253 97.6924,58.6919 98,59.5C 98.3333,59.1667 98.6667,58.8333 99,58.5C 99.6667,60.5 101,61.8333 103,62.5C 104.943,62.0411 106.276,63.0411 107,65.5C 111.731,64.5221 114.731,66.5221 116,71.5C 116.333,71.1667 116.667,70.8333 117,70.5C 119.011,74.0016 120.344,74.0016 121,70.5C 122.507,71.5046 123.673,72.838 124.5,74.5C 125.478,74.0233 126.311,73.3567 127,72.5C 128.32,74.8171 129.986,76.8171 132,78.5C 132.333,78.1667 132.667,77.8333 133,77.5C 133.483,78.448 133.649,79.448 133.5,80.5C 135.46,81.1383 137.293,81.1383 139,80.5C 140.667,82.1667 142.333,83.8333 144,85.5C 144.705,83.0144 145.538,83.0144 146.5,85.5C 137.882,91.7837 129.882,98.7837 122.5,106.5C 122.225,104.242 121.225,103.908 119.5,105.5C 118.749,104.624 118.249,103.624 118,102.5C 117.465,104.271 116.631,104.604 115.5,103.5C 115.901,101.566 116.901,100.066 118.5,99C 115.152,99.0847 112.985,97.5847 112,94.5C 111.667,95.1667 111.333,95.8333 111,96.5C 109.667,95.1667 108.333,93.8333 107,92.5C 105.951,93.5171 104.784,93.6838 103.5,93C 104.654,92.0862 104.487,91.2529 103,90.5C 102.667,90.8333 102.333,91.1667 102,91.5C 99.3452,90.2762 96.6785,88.2762 94,85.5C 90.5633,85.912 88.23,84.2453 87,80.5C 86.7508,81.624 86.2508,82.624 85.5,83.5C 85.2635,82.7528 84.9302,81.9195 84.5,81C 83.2161,80.3162 82.0495,80.4829 81,81.5C 80.6258,80.5838 80.1258,79.7504 79.5,79C 74.0688,76.905 69.2355,73.7384 65,69.5C 64.6667,70.1667 64.3333,70.8333 64,71.5C 63.5581,69.3215 62.5581,68.6548 61,69.5C 58.5288,67.6888 56.0288,66.0222 53.5,64.5C 60.2625,56.3995 67.9291,49.3995 76.5,43.5 Z"/></g>
<g><path style="opacity:0.004" fill="#202020" d="M 361.5,68.5 C 363.628,69.5375 364.628,70.8708 364.5,72.5C 362.738,71.7377 361.738,70.4044 361.5,68.5 Z"/></g>
<g><path style="opacity:0.127" fill="#141312" d="M 221.5,91.5 C 222.329,88.5314 222.495,85.5314 222,82.5C 220.581,81.5399 219.081,80.7065 217.5,80C 209.219,78.7133 200.886,78.2133 192.5,78.5C 191.673,77.5613 191.006,77.8946 190.5,79.5C 163.457,82.1957 141.124,94.1957 123.5,115.5C 123.565,115.062 123.399,114.728 123,114.5C 122.167,115.333 121.333,116.167 120.5,117C 120.728,117.399 121.062,117.565 121.5,117.5C 121.047,118.458 120.381,119.292 119.5,120C 119.833,120.333 120.167,120.667 120.5,121C 119.051,122.102 117.718,123.269 116.5,124.5C 114.895,125.006 114.561,125.673 115.5,126.5C 101.85,148.71 94.1836,173.044 92.5,199.5C 92.4243,211.888 92.9243,224.221 94,236.5C 95.9347,250.389 99.4347,263.389 104.5,275.5C 103.833,275.5 103.5,275.833 103.5,276.5C 102.263,275.035 101.263,273.368 100.5,271.5C 98.8333,266.167 97.1667,260.833 95.5,255.5C 94.5,251.5 93.5,247.5 92.5,243.5C 91.5853,237.019 90.5853,230.685 89.5,224.5C 89.5,220.833 89.5,217.167 89.5,213.5C 89.5,207.5 89.5,201.5 89.5,195.5C 89.7038,192.482 90.0371,189.482 90.5,186.5C 91.0209,182.519 91.3542,178.519 91.5,174.5C 92.4905,171.257 93.4905,167.924 94.5,164.5C 95.0966,160.381 96.0966,156.381 97.5,152.5C 98.5578,148.721 99.8911,145.054 101.5,141.5C 103.894,135.713 106.56,130.046 109.5,124.5C 113.801,118.523 118.135,112.523 122.5,106.5C 129.882,98.7837 137.882,91.7837 146.5,85.5C 156.373,80.3199 166.706,76.3199 177.5,73.5C 191.788,69.748 206.121,69.5813 220.5,73C 222.286,73.7845 223.786,74.9512 225,76.5C 226.324,82.2246 225.157,87.2246 221.5,91.5 Z"/></g>
<g><path style="opacity:0.004" fill="#191919" d="M 48.5,70.5 C 48.2624,72.4044 47.2624,73.7377 45.5,74.5C 45.7376,72.5956 46.7376,71.2623 48.5,70.5 Z"/></g>
<g><path style="opacity:0.004" fill="#272727" d="M 364.5,73.5 C 367.297,73.9666 368.631,75.6333 368.5,78.5C 367.197,76.8577 365.864,75.1911 364.5,73.5 Z"/></g>
<g><path style="opacity:0.141" fill="#7a422f" d="M 44.5,76.5 C 44.2624,78.4044 43.2624,79.7377 41.5,80.5C 41.4677,78.3812 42.4677,77.0478 44.5,76.5 Z"/></g>
<g><path style="opacity:0.004" fill="#dddddd" d="M 192.5,78.5 C 192.158,79.3382 191.492,79.6716 190.5,79.5C 191.006,77.8946 191.673,77.5613 192.5,78.5 Z"/></g>
<g><path style="opacity:0.999" fill="#dc4518" d="M 53.5,64.5 C 56.0288,66.0222 58.5288,67.6888 61,69.5C 62.5581,68.6548 63.5581,69.3215 64,71.5C 64.3333,70.8333 64.6667,70.1667 65,69.5C 69.2355,73.7384 74.0688,76.905 79.5,79C 80.1258,79.7504 80.6258,80.5838 81,81.5C 82.0495,80.4829 83.2161,80.3162 84.5,81C 84.9302,81.9195 85.2635,82.7528 85.5,83.5C 86.2508,82.624 86.7508,81.624 87,80.5C 88.23,84.2453 90.5633,85.912 94,85.5C 96.6785,88.2762 99.3452,90.2762 102,91.5C 102.333,91.1667 102.667,90.8333 103,90.5C 104.487,91.2529 104.654,92.0862 103.5,93C 104.784,93.6838 105.951,93.5171 107,92.5C 108.333,93.8333 109.667,95.1667 111,96.5C 111.333,95.8333 111.667,95.1667 112,94.5C 112.985,97.5847 115.152,99.0847 118.5,99C 116.901,100.066 115.901,101.566 115.5,103.5C 116.631,104.604 117.465,104.271 118,102.5C 118.249,103.624 118.749,104.624 119.5,105.5C 121.225,103.908 122.225,104.242 122.5,106.5C 118.135,112.523 113.801,118.523 109.5,124.5C 107.615,122.689 105.281,121.522 102.5,121C 101.874,120.25 101.374,119.416 101,118.5C 99.2513,119.299 97.918,118.632 97,116.5C 95.927,117.28 94.7604,117.113 93.5,116C 93.8333,115.667 94.1667,115.333 94.5,115C 93.2396,113.887 92.073,113.72 91,114.5C 89.0746,112.099 86.9079,110.932 84.5,111C 83.1667,110.333 83.1667,109.667 84.5,109C 81.8451,110.26 80.0118,109.426 79,106.5C 77.8074,108.443 76.3074,108.276 74.5,106C 75.8627,103.871 75.5294,103.371 73.5,104.5C 70.4104,103.647 67.9104,101.98 66,99.5C 65.6667,99.8333 65.3333,100.167 65,100.5C 63.4478,99.0339 61.6145,98.0339 59.5,97.5C 58.8003,94.9851 57.4669,94.3184 55.5,95.5C 54.3044,95.1543 54.3044,94.6543 55.5,94C 53.8333,93.6667 52.1667,93.3333 50.5,93C 50.8333,92.6667 51.1667,92.3333 51.5,92C 49.3825,91.7398 47.7158,90.7398 46.5,89C 45.2161,88.3162 44.0495,88.4829 43,89.5C 41.3998,87.4186 39.5664,86.7519 37.5,87.5C 37.5,86.8333 37.5,86.1667 37.5,85.5C 38.9744,84.5637 39.9744,83.2303 40.5,81.5C 40.5,80.8333 40.8333,80.5 41.5,80.5C 43.2624,79.7377 44.2624,78.4044 44.5,76.5C 44.3284,75.5084 44.6618,74.8417 45.5,74.5C 47.2624,73.7377 48.2624,72.4044 48.5,70.5C 50.177,68.4602 51.8437,66.4602 53.5,64.5 Z"/></g>
<g><path style="opacity:0.005" fill="#363636" d="M 369.5,80.5 C 372.292,81.3918 373.625,83.3918 373.5,86.5C 372.18,84.5368 370.846,82.5368 369.5,80.5 Z"/></g>
<g><path style="opacity:0.005" fill="#4d4d4d" d="M 40.5,81.5 C 39.9744,83.2303 38.9744,84.5637 37.5,85.5C 37.5544,83.368 38.5544,82.0347 40.5,81.5 Z"/></g>
<g><path style="opacity:0.008" fill="#252525" d="M 37.5,85.5 C 37.5,86.1667 37.5,86.8333 37.5,87.5C 36.7281,88.6935 35.7281,89.6935 34.5,90.5C 34.7497,88.326 35.7497,86.6594 37.5,85.5 Z"/></g>
<g><path style="opacity:0.004" fill="#2f2f2f" d="M 34.5,90.5 C 33.8897,92.4341 32.8897,94.1007 31.5,95.5C 31.2729,93.0672 32.2729,91.4006 34.5,90.5 Z"/></g>
<g><path style="opacity:0.011" fill="#111111" d="M 375.5,87.5 C 376.736,89.649 377.736,91.9823 378.5,94.5C 376.023,92.5739 375.023,90.2406 375.5,87.5 Z"/></g>
<g><path style="opacity:0.998" fill="#e04f1a" d="M 109.5,124.5 C 106.56,130.046 103.894,135.713 101.5,141.5C 79.2307,130.627 57.7307,118.96 37,106.5C 35.1598,107.833 34.6598,107.666 35.5,106C 32.7261,105.376 30.7261,103.876 29.5,101.5C 29.8333,100.167 30.1667,98.8333 30.5,97.5C 30.3284,96.5084 30.6618,95.8417 31.5,95.5C 32.8897,94.1007 33.8897,92.4341 34.5,90.5C 35.7281,89.6935 36.7281,88.6935 37.5,87.5C 39.5664,86.7519 41.3998,87.4186 43,89.5C 44.0495,88.4829 45.2161,88.3162 46.5,89C 47.7158,90.7398 49.3825,91.7398 51.5,92C 51.1667,92.3333 50.8333,92.6667 50.5,93C 52.1667,93.3333 53.8333,93.6667 55.5,94C 54.3044,94.6543 54.3044,95.1543 55.5,95.5C 57.4669,94.3184 58.8003,94.9851 59.5,97.5C 61.6145,98.0339 63.4478,99.0339 65,100.5C 65.3333,100.167 65.6667,99.8333 66,99.5C 67.9104,101.98 70.4104,103.647 73.5,104.5C 75.5294,103.371 75.8627,103.871 74.5,106C 76.3074,108.276 77.8074,108.443 79,106.5C 80.0118,109.426 81.8451,110.26 84.5,109C 83.1667,109.667 83.1667,110.333 84.5,111C 86.9079,110.932 89.0746,112.099 91,114.5C 92.073,113.72 93.2396,113.887 94.5,115C 94.1667,115.333 93.8333,115.667 93.5,116C 94.7604,117.113 95.927,117.28 97,116.5C 97.918,118.632 99.2513,119.299 101,118.5C 101.374,119.416 101.874,120.25 102.5,121C 105.281,121.522 107.615,122.689 109.5,124.5 Z"/></g>
<g><path style="opacity:0.012" fill="#242424" d="M 221.5,91.5 C 221.167,92.8333 220.833,94.1667 220.5,95.5C 220.167,95.5 219.833,95.5 219.5,95.5C 219.229,93.6203 219.896,92.287 221.5,91.5 Z"/></g>
<g><path style="opacity:0.008" fill="#000000" d="M 218.5,96.5 C 218.573,98.0269 217.906,99.0269 216.5,99.5C 216.427,97.9731 217.094,96.9731 218.5,96.5 Z"/></g>
<g><path style="opacity:0.009" fill="#3b3b3b" d="M 378.5,94.5 C 381.207,97.2466 382.873,100.58 383.5,104.5C 381.326,101.485 379.659,98.1513 378.5,94.5 Z"/></g>
<g><path style="opacity:0.008" fill="#505050" d="M 30.5,97.5 C 30.1667,98.8333 29.8333,100.167 29.5,101.5C 28.609,102.11 27.609,102.443 26.5,102.5C 27.604,100.611 28.9373,98.9448 30.5,97.5 Z"/></g>
<g><path style="opacity:0.006" fill="#000000" d="M 214.5,102.5 C 214.573,104.027 213.906,105.027 212.5,105.5C 212.427,103.973 213.094,102.973 214.5,102.5 Z"/></g>
<g><path style="opacity:0.007" fill="#000000" d="M 26.5,104.5 C 26.3404,106.153 25.6737,107.486 24.5,108.5C 24.2291,106.62 24.8958,105.287 26.5,104.5 Z"/></g>
<g><path style="opacity:0.998" fill="#d12d12" d="M 219.5,95.5 C 219.833,95.5 220.167,95.5 220.5,95.5C 222.06,95.5191 223.56,95.8524 225,96.5C 228.663,100.001 232.663,102.001 237,102.5C 239,104.5 241,106.5 243,108.5C 244,108.167 245,107.833 246,107.5C 249,109.491 251.833,111.658 254.5,114C 257.034,114.516 259.2,115.683 261,117.5C 261.333,117.167 261.667,116.833 262,116.5C 266.266,118.842 269.599,121.509 272,124.5C 273.333,124.5 274.667,124.5 276,124.5C 278.728,126.892 281.728,128.892 285,130.5C 286.333,130.5 287.667,130.5 289,130.5C 290.248,134.135 292.581,135.468 296,134.5C 297.098,135.967 298.598,136.801 300.5,137C 299.833,137.333 299.167,137.667 298.5,138C 308.004,141.667 316.837,146.501 325,152.5C 325.414,152.043 325.914,151.709 326.5,151.5C 328.572,153.616 330.738,155.616 333,157.5C 333.333,156.833 333.667,156.167 334,155.5C 334.833,156.5 335.667,157.5 336.5,158.5C 337.086,158.291 337.586,157.957 338,157.5C 338.284,159.886 339.284,160.552 341,159.5C 346.53,163.319 352.03,166.985 357.5,170.5C 358.167,170.167 358.833,169.833 359.5,169.5C 364.745,173.266 370.078,176.766 375.5,180C 377.397,181.11 379.23,181.276 381,180.5C 382.316,181.974 383.316,183.641 384,185.5C 384.333,184.833 384.667,184.167 385,183.5C 387.787,185.047 390.12,187.047 392,189.5C 392.414,189.043 392.914,188.709 393.5,188.5C 395.554,190.194 397.888,191.361 400.5,192C 402.019,195.051 403.019,198.218 403.5,201.5C 403.827,210.682 403.493,219.682 402.5,228.5C 402.305,224.808 400.305,222.974 396.5,223C 397.833,222.333 397.833,221.667 396.5,221C 391.458,216.945 385.791,214.279 379.5,213C 377.497,211.666 375.997,210.166 375,208.5C 374.586,208.957 374.086,209.291 373.5,209.5C 372.289,208.726 372.289,207.893 373.5,207C 371.77,205.148 370.604,205.314 370,207.5C 367.385,204.956 364.385,202.956 361,201.5C 360.667,202.167 360.333,202.833 360,203.5C 358.956,202.377 358.29,201.044 358,199.5C 357.026,201.878 356.359,201.544 356,198.5C 355.667,198.833 355.333,199.167 355,199.5C 353.399,197.028 351.399,196.028 349,196.5C 347.647,195.315 346.48,193.981 345.5,192.5C 345.089,193.262 344.923,194.262 345,195.5C 344.077,194.241 343.243,192.908 342.5,191.5C 341.575,190.359 340.741,190.359 340,191.5C 339.626,190.584 339.126,189.75 338.5,189C 335.452,188.394 332.952,186.894 331,184.5C 330,184.833 329,185.167 328,185.5C 326.279,182.719 323.779,181.052 320.5,180.5C 319.749,179.624 319.249,178.624 319,177.5C 318.333,180.167 317.667,180.167 317,177.5C 312.616,176.977 308.616,174.977 305,171.5C 304.667,171.833 304.333,172.167 304,172.5C 303.097,171.299 301.931,170.465 300.5,170C 302.929,169.549 303.096,168.715 301,167.5C 298.909,168.5 297.243,167.833 296,165.5C 294.315,167.988 292.981,167.655 292,164.5C 291.086,165.654 290.253,165.487 289.5,164C 290.167,163.667 290.833,163.333 291.5,163C 289.001,162.714 286.835,162.881 285,163.5C 283.383,162.464 283.216,161.297 284.5,160C 283.551,159.383 282.718,159.549 282,160.5C 280.954,158.91 279.787,157.41 278.5,156C 277.551,155.383 276.718,155.549 276,156.5C 275.683,154.699 275.016,154.366 274,155.5C 273.383,154.551 273.549,153.718 274.5,153C 273.256,152.544 272.423,153.044 272,154.5C 270.438,153.069 268.938,151.569 267.5,150C 265.793,149.805 264.126,149.805 262.5,150C 261.352,148.351 260.019,146.851 258.5,145.5C 258.167,146.167 257.833,146.833 257.5,147.5C 256.757,146.092 255.923,144.759 255,143.5C 254.667,144.167 254.333,144.833 254,145.5C 253.751,144.376 253.251,143.376 252.5,142.5C 251.549,143.326 250.549,143.492 249.5,143C 248.167,142.333 248.167,141.667 249.5,141C 248.069,140.535 246.903,139.701 246,138.5C 245.667,138.833 245.333,139.167 245,139.5C 243.899,137.606 242.566,136.939 241,137.5C 240.667,138.167 240.333,138.833 240,139.5C 239.659,136.813 238.326,134.813 236,133.5C 235.667,133.833 235.333,134.167 235,134.5C 234.517,133.552 234.351,132.552 234.5,131.5C 232.089,131.863 230.589,130.863 230,128.5C 228.127,127.911 226.46,128.578 225,130.5C 224.667,129.167 224.333,127.833 224,126.5C 223.667,126.833 223.333,127.167 223,127.5C 220.848,126.115 218.515,125.115 216,124.5C 212.698,121.781 209.698,119.447 207,117.5C 206.329,118.252 205.496,118.586 204.5,118.5C 205.167,117.167 205.833,115.833 206.5,114.5C 207.682,110.979 209.682,107.979 212.5,105.5C 213.906,105.027 214.573,104.027 214.5,102.5C 214.932,101.29 215.599,100.29 216.5,99.5C 217.906,99.0269 218.573,98.0269 218.5,96.5C 218.5,95.8333 218.833,95.5 219.5,95.5 Z"/></g>
<g><path style="opacity:0.998" fill="#e25a26" d="M 29.5,101.5 C 30.7261,103.876 32.7261,105.376 35.5,106C 34.6598,107.666 35.1598,107.833 37,106.5C 57.7307,118.96 79.2307,130.627 101.5,141.5C 99.8911,145.054 98.5578,148.721 97.5,152.5C 76.2477,141.358 55.7477,130.025 36,118.5C 35.6667,118.833 35.3333,119.167 35,119.5C 31.2088,117.095 27.7088,114.428 24.5,111.5C 24.5,110.5 24.5,109.5 24.5,108.5C 25.6737,107.486 26.3404,106.153 26.5,104.5C 26.5,103.833 26.5,103.167 26.5,102.5C 27.609,102.443 28.609,102.11 29.5,101.5 Z"/></g>
<g><path style="opacity:0.121" fill="#131212" d="M 383.5,104.5 C 385.601,107.248 387.434,110.248 389,113.5C 399.875,140.803 406.042,169.803 407.5,200.5C 407.5,205.5 407.5,210.5 407.5,215.5C 406.167,215.833 406.167,216.167 407.5,216.5C 407.5,218.5 407.5,220.5 407.5,222.5C 404.776,266.771 391.276,306.771 367,342.5C 331.439,388.538 285.605,414.872 229.5,421.5C 221.384,422.605 213.384,423.605 205.5,424.5C 205.167,424.5 204.833,424.5 204.5,424.5C 203.833,423.167 203.167,423.167 202.5,424.5C 202.167,424.5 201.833,424.5 201.5,424.5C 198.437,423.799 195.27,423.132 192,422.5C 160.473,422.501 129.973,415.167 100.5,400.5C 99.9941,398.895 99.3274,398.561 98.5,399.5C 87.4763,393.986 77.4763,386.986 68.5,378.5C 67.9941,376.895 67.3274,376.561 66.5,377.5C 62.9427,374.61 59.6093,371.276 56.5,367.5C 55.4955,366.317 54.6622,364.984 54,363.5C 53.6174,364.056 53.1174,364.389 52.5,364.5C 52.2178,363.222 51.5511,362.222 50.5,361.5C 50.1436,359.81 49.1436,358.81 47.5,358.5C 25.6136,331.413 11.447,301.08 5,267.5C 2.73823,253.069 0.904894,238.736 -0.5,224.5C -0.5,224.167 -0.5,223.833 -0.5,223.5C 0.833333,221.167 0.833333,218.833 -0.5,216.5C -0.5,213.833 -0.5,211.167 -0.5,208.5C 0.833333,206.5 0.833333,204.5 -0.5,202.5C -0.5,202.167 -0.5,201.833 -0.5,201.5C 0.833333,200.5 0.833333,199.5 -0.5,198.5C -0.5,198.167 -0.5,197.833 -0.5,197.5C 1.66433,187.039 3.16433,176.372 4,165.5C 7.22225,152.965 10.3889,141.131 13.5,130C 16.8134,122.538 20.48,115.371 24.5,108.5C 24.5,109.5 24.5,110.5 24.5,111.5C 22.049,114.74 20.3824,118.407 19.5,122.5C 17.9802,124.89 16.9802,127.557 16.5,130.5C 14.057,135.5 12.3904,140.834 11.5,146.5C 10.2318,148.905 9.56513,151.572 9.5,154.5C 8.21543,157.589 7.54877,160.922 7.5,164.5C 6.01086,168.236 5.3442,172.236 5.5,176.5C 4.12457,183.289 3.4579,190.289 3.5,197.5C 3.5,200.167 3.5,202.833 3.5,205.5C 3.17364,214.349 3.50698,223.016 4.5,231.5C 4.18723,235.042 4.52056,238.375 5.5,241.5C 5.19845,244.059 5.53178,246.393 6.5,248.5C 6.3442,252.764 7.01086,256.764 8.5,260.5C 8.42032,263.781 9.08699,266.781 10.5,269.5C 10.5651,272.428 11.2318,275.095 12.5,277.5C 12.7234,281.162 13.7234,284.495 15.5,287.5C 16.3982,292.534 18.0649,297.201 20.5,301.5C 46.2094,362.223 91.5427,399.057 156.5,412C 180.4,415.579 204.4,416.413 228.5,414.5C 234.546,413.715 240.546,412.715 246.5,411.5C 249.267,411.142 251.933,410.475 254.5,409.5C 258.044,409.115 261.377,408.115 264.5,406.5C 268.784,405.739 272.784,404.405 276.5,402.5C 279.327,401.892 281.993,400.892 284.5,399.5C 291.311,396.93 297.644,393.596 303.5,389.5C 307.801,387.683 311.801,385.35 315.5,382.5C 319.238,380.303 322.571,377.636 325.5,374.5C 329.207,372.312 332.54,369.645 335.5,366.5C 338.5,364.167 341.167,361.5 343.5,358.5C 345.5,357.167 347.167,355.5 348.5,353.5C 350.167,352.5 351.5,351.167 352.5,349.5C 353.906,349.027 354.573,348.027 354.5,346.5C 357.645,343.54 360.312,340.207 362.5,336.5C 364.063,335.055 365.396,333.389 366.5,331.5C 368.192,329.795 369.525,327.795 370.5,325.5C 372.596,322.738 374.262,319.738 375.5,316.5C 376.737,315.035 377.737,313.368 378.5,311.5C 379.737,310.035 380.737,308.368 381.5,306.5C 383.028,303.251 384.361,299.918 385.5,296.5C 388.596,290.891 390.93,284.891 392.5,278.5C 393.87,275.381 394.87,272.048 395.5,268.5C 397.579,263.122 398.913,257.456 399.5,251.5C 400.369,249.283 400.702,246.95 400.5,244.5C 402.078,239.417 402.745,234.084 402.5,228.5C 403.493,219.682 403.827,210.682 403.5,201.5C 403.737,187.209 402.404,173.209 399.5,159.5C 397.928,148.213 395.261,137.213 391.5,126.5C 389.03,119.09 386.364,111.757 383.5,104.5 Z"/></g>
<g><path style="opacity:1" fill="#e78b66" d="M 352.5,349.5 C 351.5,351.167 350.167,352.5 348.5,353.5C 345.528,352.821 342.528,351.654 339.5,350C 338.663,348.989 338.33,347.822 338.5,346.5C 337.07,346.421 335.736,346.754 334.5,347.5C 329.691,342.928 324.024,340.261 317.5,339.5C 317.649,338.448 317.483,337.448 317,336.5C 316.667,336.833 316.333,337.167 316,337.5C 315,335.833 313.667,334.5 312,333.5C 311.667,333.833 311.333,334.167 311,334.5C 309.902,333.033 308.402,332.199 306.5,332C 305.74,328.333 304.24,327.833 302,330.5C 301.683,328.699 301.016,328.366 300,329.5C 298.934,327.901 297.434,326.901 295.5,326.5C 294.416,325.335 293.583,324.002 293,322.5C 290.919,323.333 288.752,323.333 286.5,322.5C 286.649,321.448 286.483,320.448 286,319.5C 284.984,320.634 284.317,320.301 284,318.5C 283.667,318.833 283.333,319.167 283,319.5C 276.699,315.021 269.865,311.688 262.5,309.5C 260.983,307.815 259.316,306.315 257.5,305C 257.833,304.667 258.167,304.333 258.5,304C 257.451,303.508 256.451,303.674 255.5,304.5C 254.614,303.675 254.281,302.675 254.5,301.5C 252.473,301.662 250.473,301.495 248.5,301C 246.834,300.003 245.334,298.503 244,296.5C 243.667,296.833 243.333,297.167 243,297.5C 240.164,294.498 236.664,292.664 232.5,292C 231.213,290.59 230.046,289.09 229,287.5C 226.774,289.159 225.107,288.492 224,285.5C 223.667,285.833 223.333,286.167 223,286.5C 220.527,285.88 218.027,285.214 215.5,284.5C 213.491,282.205 211.325,280.872 209,280.5C 208.107,281.711 207.274,281.711 206.5,280.5C 207.04,279.252 207.707,278.085 208.5,277C 202.883,275.81 197.716,273.643 193,270.5C 193.077,269.262 192.911,268.262 192.5,267.5C 191.808,268.025 191.308,268.692 191,269.5C 189.291,267.825 187.624,266.158 186,264.5C 185.517,265.448 185.351,266.448 185.5,267.5C 183.262,264.028 181.262,260.362 179.5,256.5C 180.95,255.342 181.95,255.842 182.5,258C 203.601,268.792 224.435,279.959 245,291.5C 250.97,293.759 256.804,297.093 262.5,301.5C 273.93,306.715 284.93,312.715 295.5,319.5C 314.798,329.311 333.798,339.311 352.5,349.5 Z"/></g>
<g><path style="opacity:0.999" fill="#efece6" d="M 228.5,414.5 C 204.4,416.413 180.4,415.579 156.5,412C 91.5427,399.057 46.2094,362.223 20.5,301.5C 20.62,300.414 21.2867,299.747 22.5,299.5C 31.1175,304.389 39.6175,309.389 48,314.5C 48.3333,314.167 48.6667,313.833 49,313.5C 61.5531,320.37 73.8865,327.703 86,335.5C 86.3333,335.167 86.6667,334.833 87,334.5C 92.5887,336.739 97.922,340.072 103,344.5C 112.31,348.369 121.31,353.369 130,359.5C 130.333,359.167 130.667,358.833 131,358.5C 163.544,376.859 196.377,394.859 229.5,412.5C 229.137,413.183 228.804,413.85 228.5,414.5 Z"/></g>
<g><path style="opacity:1" fill="#eccbba" d="M 126.5,312.5 C 142.645,329.261 162.312,339.594 185.5,343.5C 194.792,348.626 204.126,353.959 213.5,359.5C 214.965,358.391 215.965,358.891 216.5,361C 226.562,366.696 236.895,372.029 247.5,377C 251.853,379.624 256.019,382.457 260,385.5C 260.333,385.167 260.667,384.833 261,384.5C 263.139,386.035 265.139,387.701 267,389.5C 267.333,389.167 267.667,388.833 268,388.5C 270.183,390.447 272.516,392.114 275,393.5C 275.333,393.167 275.667,392.833 276,392.5C 279.385,394.261 282.218,396.594 284.5,399.5C 281.993,400.892 279.327,401.892 276.5,402.5C 267.297,398.332 258.797,393.665 251,388.5C 246.657,387.952 242.824,385.785 239.5,382C 233.204,380.128 227.538,377.128 222.5,373C 203.703,364.01 185.203,353.843 167,342.5C 165.434,343.061 164.101,342.394 163,340.5C 162.667,340.833 162.333,341.167 162,341.5C 143.767,330.28 124.601,319.78 104.5,310C 103.5,309 102.5,308 101.5,307C 83.9201,299.059 67.0867,289.892 51,279.5C 50.6667,279.833 50.3333,280.167 50,280.5C 47.917,278.133 45.417,276.299 42.5,275C 30.7275,269.948 19.3942,264.114 8.5,257.5C 8.5,258.5 8.5,259.5 8.5,260.5C 7.01086,256.764 6.3442,252.764 6.5,248.5C 6.36912,247.624 6.70245,246.957 7.5,246.5C 17.6202,252.659 28.2869,258.492 39.5,264C 38.6598,265.666 39.1598,265.833 41,264.5C 42.3246,266.993 44.4913,268.16 47.5,268C 49.4783,270.233 51.6449,271.4 54,271.5C 54.9147,272.328 55.5814,273.328 56,274.5C 56.805,272.099 57.6383,272.266 58.5,275C 71.829,281.932 84.829,288.599 97.5,295C 107.621,301.018 117.288,306.851 126.5,312.5 Z"/></g>
<g><path style="opacity:0.012" fill="#4d4d4d" d="M 119.5,303.5 C 121.587,304.585 122.92,306.251 123.5,308.5C 121.413,307.415 120.08,305.749 119.5,303.5 Z"/></g>
<g><path style="opacity:0.004" fill="#000000" d="M 117.5,301.5 C 118.833,301.5 119.5,302.167 119.5,303.5C 118.5,303.167 117.833,302.5 117.5,301.5 Z"/></g>
<g><path style="opacity:0.999" fill="#e8a081" d="M 204.5,296.5 C 248.233,319.844 291.9,343.178 335.5,366.5C 332.54,369.645 329.207,372.312 325.5,374.5C 314.449,368.833 303.949,362.833 294,356.5C 293.667,356.833 293.333,357.167 293,357.5C 290.116,355.732 287.449,353.732 285,351.5C 284.667,351.833 284.333,352.167 284,352.5C 276.352,348.669 268.685,344.002 261,338.5C 260,338.5 259,338.5 258,338.5C 252.963,335.154 247.963,331.82 243,328.5C 242.667,328.833 242.333,329.167 242,329.5C 234.741,325.026 227.241,321.026 219.5,317.5C 214.144,310.802 209.144,303.802 204.5,296.5 Z"/></g>
<g><path style="opacity:0.008" fill="#000000" d="M 111.5,290.5 C 112.338,290.842 112.672,291.508 112.5,292.5C 110.576,292.289 110.243,291.623 111.5,290.5 Z"/></g>
<g><path style="opacity:0.999" fill="#eee4db" d="M 246.5,411.5 C 240.546,412.715 234.546,413.715 228.5,414.5C 228.804,413.85 229.137,413.183 229.5,412.5C 196.377,394.859 163.544,376.859 131,358.5C 130.667,358.833 130.333,359.167 130,359.5C 121.31,353.369 112.31,348.369 103,344.5C 97.922,340.072 92.5887,336.739 87,334.5C 86.6667,334.833 86.3333,335.167 86,335.5C 73.8865,327.703 61.5531,320.37 49,313.5C 48.6667,313.833 48.3333,314.167 48,314.5C 39.6175,309.389 31.1175,304.389 22.5,299.5C 21.2867,299.747 20.62,300.414 20.5,301.5C 18.0649,297.201 16.3982,292.534 15.5,287.5C 15.369,286.761 15.5357,286.094 16,285.5C 21.9241,289.986 28.2574,292.653 35,293.5C 40.708,296.97 46.0414,300.303 51,303.5C 108.341,334.001 165.341,365.001 222,396.5C 228.998,400.254 236.498,404.087 244.5,408C 245.823,408.816 246.489,409.983 246.5,411.5 Z"/></g>
<g><path style="opacity:0.999" fill="#e7906d" d="M 348.5,353.5 C 347.167,355.5 345.5,357.167 343.5,358.5C 295.334,332.801 246.834,306.134 198,278.5C 197.667,278.833 197.333,279.167 197,279.5C 195.266,277.549 193.099,276.549 190.5,276.5C 188.58,273.661 186.913,270.661 185.5,267.5C 185.351,266.448 185.517,265.448 186,264.5C 187.624,266.158 189.291,267.825 191,269.5C 191.308,268.692 191.808,268.025 192.5,267.5C 192.911,268.262 193.077,269.262 193,270.5C 197.716,273.643 202.883,275.81 208.5,277C 207.707,278.085 207.04,279.252 206.5,280.5C 207.274,281.711 208.107,281.711 209,280.5C 211.325,280.872 213.491,282.205 215.5,284.5C 218.027,285.214 220.527,285.88 223,286.5C 223.333,286.167 223.667,285.833 224,285.5C 225.107,288.492 226.774,289.159 229,287.5C 230.046,289.09 231.213,290.59 232.5,292C 236.664,292.664 240.164,294.498 243,297.5C 243.333,297.167 243.667,296.833 244,296.5C 245.334,298.503 246.834,300.003 248.5,301C 250.473,301.495 252.473,301.662 254.5,301.5C 254.281,302.675 254.614,303.675 255.5,304.5C 256.451,303.674 257.451,303.508 258.5,304C 258.167,304.333 257.833,304.667 257.5,305C 259.316,306.315 260.983,307.815 262.5,309.5C 269.865,311.688 276.699,315.021 283,319.5C 283.333,319.167 283.667,318.833 284,318.5C 284.317,320.301 284.984,320.634 286,319.5C 286.483,320.448 286.649,321.448 286.5,322.5C 288.752,323.333 290.919,323.333 293,322.5C 293.583,324.002 294.416,325.335 295.5,326.5C 297.434,326.901 298.934,327.901 300,329.5C 301.016,328.366 301.683,328.699 302,330.5C 304.24,327.833 305.74,328.333 306.5,332C 308.402,332.199 309.902,333.033 311,334.5C 311.333,334.167 311.667,333.833 312,333.5C 313.667,334.5 315,335.833 316,337.5C 316.333,337.167 316.667,336.833 317,336.5C 317.483,337.448 317.649,338.448 317.5,339.5C 324.024,340.261 329.691,342.928 334.5,347.5C 335.736,346.754 337.07,346.421 338.5,346.5C 338.33,347.822 338.663,348.989 339.5,350C 342.528,351.654 345.528,352.821 348.5,353.5 Z"/></g>
<g><path style="opacity:0.999" fill="#e89877" d="M 190.5,276.5 C 193.099,276.549 195.266,277.549 197,279.5C 197.333,279.167 197.667,278.833 198,278.5C 246.834,306.134 295.334,332.801 343.5,358.5C 341.167,361.5 338.5,364.167 335.5,366.5C 291.9,343.178 248.233,319.844 204.5,296.5C 199.477,290.133 194.81,283.466 190.5,276.5 Z"/></g>
<g><path style="opacity:0.009" fill="#242424" d="M 104.5,275.5 C 106.151,279.391 107.818,283.724 109.5,288.5C 109.167,288.5 108.833,288.5 108.5,288.5C 106.293,284.749 104.626,280.749 103.5,276.5C 103.5,275.833 103.833,275.5 104.5,275.5 Z"/></g>
<g><path style="opacity:0.999" fill="#eedcd1" d="M 254.5,409.5 C 251.933,410.475 249.267,411.142 246.5,411.5C 246.489,409.983 245.823,408.816 244.5,408C 236.498,404.087 228.998,400.254 222,396.5C 165.341,365.001 108.341,334.001 51,303.5C 46.0414,300.303 40.708,296.97 35,293.5C 28.2574,292.653 21.9241,289.986 16,285.5C 15.5357,286.094 15.369,286.761 15.5,287.5C 13.7234,284.495 12.7234,281.162 12.5,277.5C 12.369,276.761 12.5357,276.094 13,275.5C 22.2609,280.435 31.2609,285.768 40,291.5C 42.3987,291.028 44.3987,292.028 46,294.5C 47.8402,293.167 48.3402,293.334 47.5,295C 49.584,295.778 51.4173,296.945 53,298.5C 53.3333,298.167 53.6667,297.833 54,297.5C 57.1968,298.789 59.8635,300.789 62,303.5C 64.3987,303.028 66.3987,304.028 68,306.5C 68.3333,306.167 68.6667,305.833 69,305.5C 73.4799,310.155 79.3132,313.488 86.5,315.5C 109.136,328.064 131.636,340.731 154,353.5C 155.566,352.939 156.899,353.606 158,355.5C 158.333,355.167 158.667,354.833 159,354.5C 166.088,359.596 173.422,364.262 181,368.5C 181.333,368.167 181.667,367.833 182,367.5C 188.454,371.814 195.287,375.314 202.5,378C 207.482,381.267 212.315,384.767 217,388.5C 217.333,387.833 217.667,387.167 218,386.5C 218.442,388.679 219.442,389.345 221,388.5C 222.964,390.432 225.131,392.099 227.5,393.5C 235.553,397.718 243.886,401.885 252.5,406C 253.823,406.816 254.489,407.983 254.5,409.5 Z"/></g>
<g><path style="opacity:0.999" fill="#edd7ca" d="M 264.5,406.5 C 261.377,408.115 258.044,409.115 254.5,409.5C 254.489,407.983 253.823,406.816 252.5,406C 243.886,401.885 235.553,397.718 227.5,393.5C 225.131,392.099 222.964,390.432 221,388.5C 219.442,389.345 218.442,388.679 218,386.5C 217.667,387.167 217.333,387.833 217,388.5C 212.315,384.767 207.482,381.267 202.5,378C 195.287,375.314 188.454,371.814 182,367.5C 181.667,367.833 181.333,368.167 181,368.5C 173.422,364.262 166.088,359.596 159,354.5C 158.667,354.833 158.333,355.167 158,355.5C 156.899,353.606 155.566,352.939 154,353.5C 131.636,340.731 109.136,328.064 86.5,315.5C 79.3132,313.488 73.4799,310.155 69,305.5C 68.6667,305.833 68.3333,306.167 68,306.5C 66.3987,304.028 64.3987,303.028 62,303.5C 59.8635,300.789 57.1968,298.789 54,297.5C 53.6667,297.833 53.3333,298.167 53,298.5C 51.4173,296.945 49.584,295.778 47.5,295C 48.3402,293.334 47.8402,293.167 46,294.5C 44.3987,292.028 42.3987,291.028 40,291.5C 31.2609,285.768 22.2609,280.435 13,275.5C 12.5357,276.094 12.369,276.761 12.5,277.5C 11.2318,275.095 10.5651,272.428 10.5,269.5C 10.3691,268.624 10.7025,267.957 11.5,267.5C 18.4614,272.106 25.628,276.44 33,280.5C 46.6081,287.149 60.2748,294.483 74,302.5C 74.3333,302.167 74.6667,301.833 75,301.5C 75.8333,302.5 76.6667,303.5 77.5,304.5C 105.598,319.546 133.598,334.546 161.5,349.5C 162.251,350.376 162.751,351.376 163,352.5C 163.333,351.833 163.667,351.167 164,350.5C 170.612,354.493 177.279,358.493 184,362.5C 185.15,363.424 186.15,363.424 187,362.5C 190.405,365.994 194.072,368.327 198,369.5C 201.448,371.355 204.781,373.355 208,375.5C 208.333,375.167 208.667,374.833 209,374.5C 211.279,376.289 213.279,378.289 215,380.5C 215.414,380.043 215.914,379.709 216.5,379.5C 220.877,382.356 225.211,384.523 229.5,386C 229.167,386.333 228.833,386.667 228.5,387C 231.319,387.068 233.486,388.234 235,390.5C 235.333,390.167 235.667,389.833 236,389.5C 246.099,395.253 255.599,400.92 264.5,406.5 Z"/></g>
<g><path style="opacity:0.092" fill="#151413" d="M 167.5,188.5 C 167.833,188.5 168.167,188.5 168.5,188.5C 168.5,190.167 168.5,191.833 168.5,193.5C 167.518,196.962 167.185,200.629 167.5,204.5C 166.665,207.994 166.665,211.66 167.5,215.5C 167.401,218.237 167.735,220.904 168.5,223.5C 169.04,226.865 169.706,230.198 170.5,233.5C 171.63,237.558 172.964,241.558 174.5,245.5C 175.973,249.251 177.64,252.917 179.5,256.5C 181.262,260.362 183.262,264.028 185.5,267.5C 186.913,270.661 188.58,273.661 190.5,276.5C 194.81,283.466 199.477,290.133 204.5,296.5C 209.144,303.802 214.144,310.802 219.5,317.5C 220.739,320.589 222.239,323.589 224,326.5C 225.149,329.393 225.649,332.393 225.5,335.5C 225.727,337.933 224.727,339.599 222.5,340.5C 222.78,337.728 222.113,335.228 220.5,333C 220.833,332.667 221.167,332.333 221.5,332C 211.051,316.645 200.551,301.812 190,287.5C 184.491,276.958 178.991,266.791 173.5,257C 173.833,256.667 174.167,256.333 174.5,256C 172.963,254.89 172.297,253.39 172.5,251.5C 172.869,249.007 172.203,248.34 170.5,249.5C 164.613,232.244 162.78,214.577 165,196.5C 165.279,193.543 166.113,190.877 167.5,188.5 Z"/></g>
<g><path style="opacity:0.012" fill="#909090" d="M 172.5,251.5 C 171.5,251.167 170.833,250.5 170.5,249.5C 172.203,248.34 172.869,249.007 172.5,251.5 Z"/></g>
<g><path style="opacity:0.999" fill="#e68660" d="M 174.5,245.5 C 181.363,250.523 188.53,255.189 196,259.5C 196.333,259.167 196.667,258.833 197,258.5C 245.723,285.342 294.057,312.009 342,338.5C 342.333,338.167 342.667,337.833 343,337.5C 345.057,340.014 347.39,341.347 350,341.5C 351.758,343.083 353.258,344.75 354.5,346.5C 354.573,348.027 353.906,349.027 352.5,349.5C 333.798,339.311 314.798,329.311 295.5,319.5C 284.93,312.715 273.93,306.715 262.5,301.5C 256.804,297.093 250.97,293.759 245,291.5C 224.435,279.959 203.601,268.792 182.5,258C 181.95,255.842 180.95,255.342 179.5,256.5C 177.64,252.917 175.973,249.251 174.5,245.5 Z"/></g>
<g><path style="opacity:0.999" fill="#e68058" d="M 170.5,233.5 C 172.466,234.441 174.466,235.441 176.5,236.5C 177.086,236.291 177.586,235.957 178,235.5C 199.782,248.382 221.782,260.382 244,271.5C 283.308,293.57 322.808,315.236 362.5,336.5C 360.312,340.207 357.645,343.54 354.5,346.5C 353.258,344.75 351.758,343.083 350,341.5C 347.39,341.347 345.057,340.014 343,337.5C 342.667,337.833 342.333,338.167 342,338.5C 294.057,312.009 245.723,285.342 197,258.5C 196.667,258.833 196.333,259.167 196,259.5C 188.53,255.189 181.363,250.523 174.5,245.5C 172.964,241.558 171.63,237.558 170.5,233.5 Z"/></g>
<g><path style="opacity:0.997" fill="#eac2ae" d="M 108.5,288.5 C 108.833,288.5 109.167,288.5 109.5,288.5C 110.5,288.833 111.167,289.5 111.5,290.5C 110.243,291.623 110.576,292.289 112.5,292.5C 113.897,295.4 115.564,298.4 117.5,301.5C 117.833,302.5 118.5,303.167 119.5,303.5C 120.08,305.749 121.413,307.415 123.5,308.5C 125.262,309.262 126.262,310.596 126.5,312.5C 117.288,306.851 107.621,301.018 97.5,295C 84.829,288.599 71.829,281.932 58.5,275C 57.6383,272.266 56.805,272.099 56,274.5C 55.5814,273.328 54.9147,272.328 54,271.5C 51.6449,271.4 49.4783,270.233 47.5,268C 44.4913,268.16 42.3246,266.993 41,264.5C 39.1598,265.833 38.6598,265.666 39.5,264C 28.2869,258.492 17.6202,252.659 7.5,246.5C 6.70245,246.957 6.36912,247.624 6.5,248.5C 5.53178,246.393 5.19845,244.059 5.5,241.5C 5.33537,238.482 5.50204,235.482 6,232.5C 40.2016,251.673 74.3683,270.34 108.5,288.5 Z"/></g>
<g><path style="opacity:0.999" fill="#eab9a3" d="M 100.5,271.5 C 101.263,273.368 102.263,275.035 103.5,276.5C 104.626,280.749 106.293,284.749 108.5,288.5C 74.3683,270.34 40.2016,251.673 6,232.5C 5.50204,235.482 5.33537,238.482 5.5,241.5C 4.52056,238.375 4.18723,235.042 4.5,231.5C 4.33449,227.486 4.50115,223.486 5,219.5C 5.85252,221.125 6.85252,221.458 8,220.5C 8.37424,221.416 8.87424,222.25 9.5,223C 14.0129,224.7 18.5129,227.2 23,230.5C 23.3333,230.167 23.6667,229.833 24,229.5C 49.9658,244.201 75.4658,258.201 100.5,271.5 Z"/></g>
<g><path style="opacity:0.999" fill="#e5784e" d="M 168.5,223.5 C 234.58,260.125 300.58,296.125 366.5,331.5C 365.396,333.389 364.063,335.055 362.5,336.5C 322.808,315.236 283.308,293.57 244,271.5C 221.782,260.382 199.782,248.382 178,235.5C 177.586,235.957 177.086,236.291 176.5,236.5C 174.466,235.441 172.466,234.441 170.5,233.5C 169.706,230.198 169.04,226.865 168.5,223.5 Z"/></g>
<g><path style="opacity:0.999" fill="#e47347" d="M 167.5,215.5 C 168.674,217.441 170.341,218.941 172.5,220C 231.383,251.372 290.217,283.539 349,316.5C 349.333,316.167 349.667,315.833 350,315.5C 355.31,318.496 360.31,321.829 365,325.5C 366.707,324.862 368.54,324.862 370.5,325.5C 369.525,327.795 368.192,329.795 366.5,331.5C 300.58,296.125 234.58,260.125 168.5,223.5C 167.735,220.904 167.401,218.237 167.5,215.5 Z"/></g>
<g><path style="opacity:0.999" fill="#e9af96" d="M 3.5,205.5 C 19.3675,213.337 34.0342,221.504 47.5,230C 63.3527,237.962 79.3527,246.462 95.5,255.5C 97.1667,260.833 98.8333,266.167 100.5,271.5C 75.4658,258.201 49.9658,244.201 24,229.5C 23.6667,229.833 23.3333,230.167 23,230.5C 18.5129,227.2 14.0129,224.7 9.5,223C 8.87424,222.25 8.37424,221.416 8,220.5C 6.85252,221.458 5.85252,221.125 5,219.5C 4.50115,223.486 4.33449,227.486 4.5,231.5C 3.50698,223.016 3.17364,214.349 3.5,205.5 Z"/></g>
<g><path style="opacity:0.999" fill="#e46d3f" d="M 167.5,204.5 C 235.759,241.686 303.759,278.853 371.5,316C 372.793,316.49 374.127,316.657 375.5,316.5C 374.262,319.738 372.596,322.738 370.5,325.5C 368.54,324.862 366.707,324.862 365,325.5C 360.31,321.829 355.31,318.496 350,315.5C 349.667,315.833 349.333,316.167 349,316.5C 290.217,283.539 231.383,251.372 172.5,220C 170.341,218.941 168.674,217.441 167.5,215.5C 166.665,211.66 166.665,207.994 167.5,204.5 Z"/></g>
<g><path style="opacity:0.999" fill="#e9a68a" d="M 92.5,243.5 C 93.5,247.5 94.5,251.5 95.5,255.5C 79.3527,246.462 63.3527,237.962 47.5,230C 34.0342,221.504 19.3675,213.337 3.5,205.5C 3.5,202.833 3.5,200.167 3.5,197.5C 4.2323,196.192 5.06564,194.858 6,193.5C 19.6667,201.5 33.3333,209.5 47,217.5C 47.3333,217.167 47.6667,216.833 48,216.5C 60.1224,224.11 72.6224,231.11 85.5,237.5C 87.3338,240.195 89.6671,242.195 92.5,243.5 Z"/></g>
<g><path style="opacity:0.999" fill="#e36535" d="M 168.5,193.5 C 168.215,195.288 168.548,196.955 169.5,198.5C 181.277,205.396 193.61,211.896 206.5,218C 207.667,219.167 208.833,220.333 210,221.5C 210.333,221.167 210.667,220.833 211,220.5C 224.211,228.437 237.545,236.104 251,243.5C 251.333,243.167 251.667,242.833 252,242.5C 253.706,245.509 256.039,246.842 259,246.5C 263.535,250.081 268.201,252.747 273,254.5C 273.317,256.301 273.984,256.634 275,255.5C 278.786,258.468 283.286,260.968 288.5,263C 289.126,263.75 289.626,264.584 290,265.5C 291.566,264.939 292.899,265.606 294,267.5C 294.333,267.167 294.667,266.833 295,266.5C 301.609,271.121 308.276,274.788 315,277.5C 332.123,286.061 348.79,295.394 365,305.5C 365.333,305.167 365.667,304.833 366,304.5C 369.331,308.332 373.498,310.666 378.5,311.5C 377.737,313.368 376.737,315.035 375.5,316.5C 374.127,316.657 372.793,316.49 371.5,316C 303.759,278.853 235.759,241.686 167.5,204.5C 167.185,200.629 167.518,196.962 168.5,193.5 Z"/></g>
<g><path style="opacity:0.999" fill="#e3602e" d="M 168.5,188.5 C 168.833,188.5 169.167,188.5 169.5,188.5C 169.238,189.978 169.571,191.311 170.5,192.5C 240.889,231.509 311.222,269.509 381.5,306.5C 380.737,308.368 379.737,310.035 378.5,311.5C 373.498,310.666 369.331,308.332 366,304.5C 365.667,304.833 365.333,305.167 365,305.5C 348.79,295.394 332.123,286.061 315,277.5C 308.276,274.788 301.609,271.121 295,266.5C 294.667,266.833 294.333,267.167 294,267.5C 292.899,265.606 291.566,264.939 290,265.5C 289.626,264.584 289.126,263.75 288.5,263C 283.286,260.968 278.786,258.468 275,255.5C 273.984,256.634 273.317,256.301 273,254.5C 268.201,252.747 263.535,250.081 259,246.5C 256.039,246.842 253.706,245.509 252,242.5C 251.667,242.833 251.333,243.167 251,243.5C 237.545,236.104 224.211,228.437 211,220.5C 210.667,220.833 210.333,221.167 210,221.5C 208.833,220.333 207.667,219.167 206.5,218C 193.61,211.896 181.277,205.396 169.5,198.5C 168.548,196.955 168.215,195.288 168.5,193.5C 168.5,191.833 168.5,190.167 168.5,188.5 Z"/></g>
<g><path style="opacity:0.999" fill="#e89d7d" d="M 5.5,176.5 C 5.50196,180.349 7.33529,183.015 11,184.5C 13.9464,184.986 16.7798,186.486 19.5,189C 42.8136,200.932 65.8136,213.432 88.5,226.5C 89.2975,226.043 89.6309,225.376 89.5,224.5C 90.5853,230.685 91.5853,237.019 92.5,243.5C 89.6671,242.195 87.3338,240.195 85.5,237.5C 72.6224,231.11 60.1224,224.11 48,216.5C 47.6667,216.833 47.3333,217.167 47,217.5C 33.3333,209.5 19.6667,201.5 6,193.5C 5.06564,194.858 4.2323,196.192 3.5,197.5C 3.4579,190.289 4.12457,183.289 5.5,176.5 Z"/></g>
<g><path style="opacity:0.999" fill="#e25a26" d="M 171.5,180.5 C 242.564,219.54 313.897,258.207 385.5,296.5C 384.361,299.918 383.028,303.251 381.5,306.5C 311.222,269.509 240.889,231.509 170.5,192.5C 169.571,191.311 169.238,189.978 169.5,188.5C 169.294,185.505 169.96,182.838 171.5,180.5 Z"/></g>
<g><path style="opacity:0.999" fill="#e79471" d="M 7.5,164.5 C 7.92752,170.116 10.7609,172.449 16,171.5C 16.2954,174.432 17.7954,176.432 20.5,177.5C 25.8671,178.935 30.7005,181.268 35,184.5C 34.9227,183.262 35.0894,182.262 35.5,181.5C 36.5904,182.727 37.9238,183.56 39.5,184C 38.1667,185 38.1667,186 39.5,187C 42.2756,187.066 44.4423,188.232 46,190.5C 46.3333,190.167 46.6667,189.833 47,189.5C 52.2386,194.367 57.7386,197.2 63.5,198C 64.8333,198.667 64.8333,199.333 63.5,200C 72.2326,204.184 80.8993,208.684 89.5,213.5C 89.5,217.167 89.5,220.833 89.5,224.5C 89.6309,225.376 89.2975,226.043 88.5,226.5C 65.8136,213.432 42.8136,200.932 19.5,189C 16.7798,186.486 13.9464,184.986 11,184.5C 7.33529,183.015 5.50196,180.349 5.5,176.5C 5.3442,172.236 6.01086,168.236 7.5,164.5 Z"/></g>
<g><path style="opacity:1" fill="#e68a64" d="M 9.5,154.5 C 9.33003,155.822 9.66337,156.989 10.5,158C 14.1641,159.002 17.3308,160.836 20,163.5C 20.414,163.043 20.914,162.709 21.5,162.5C 22.5836,163.665 23.4169,164.998 24,166.5C 26.5624,166.262 28.8957,167.262 31,169.5C 31.3333,169.167 31.6667,168.833 32,168.5C 51.087,179.225 69.7537,189.892 88,200.5C 88.1981,198.618 88.6981,196.952 89.5,195.5C 89.5,201.5 89.5,207.5 89.5,213.5C 80.8993,208.684 72.2326,204.184 63.5,200C 64.8333,199.333 64.8333,198.667 63.5,198C 57.7386,197.2 52.2386,194.367 47,189.5C 46.6667,189.833 46.3333,190.167 46,190.5C 44.4423,188.232 42.2756,187.066 39.5,187C 38.1667,186 38.1667,185 39.5,184C 37.9238,183.56 36.5904,182.727 35.5,181.5C 35.0894,182.262 34.9227,183.262 35,184.5C 30.7005,181.268 25.8671,178.935 20.5,177.5C 17.7954,176.432 16.2954,174.432 16,171.5C 10.7609,172.449 7.92752,170.116 7.5,164.5C 7.54877,160.922 8.21543,157.589 9.5,154.5 Z"/></g>
<g><path style="opacity:0.012" fill="#2f2f2f" d="M 183.5,149.5 C 181.833,153.5 180.167,157.5 178.5,161.5C 174.804,167.248 172.47,173.581 171.5,180.5C 169.96,182.838 169.294,185.505 169.5,188.5C 169.167,188.5 168.833,188.5 168.5,188.5C 168.167,188.5 167.833,188.5 167.5,188.5C 167.389,187.883 167.056,187.383 166.5,187C 167.48,182.656 169.146,178.323 171.5,174C 171.167,173.667 170.833,173.333 170.5,173C 174.173,165.964 177.839,158.964 181.5,152C 180.72,150.927 180.887,149.76 182,148.5C 182.383,149.056 182.883,149.389 183.5,149.5 Z"/></g>
<g><path style="opacity:0.999" fill="#e04f1a" d="M 178.5,161.5 C 180.755,162.215 182.588,163.548 184,165.5C 185.016,164.366 185.683,164.699 186,166.5C 186.423,165.044 187.256,164.544 188.5,165C 188.043,165.414 187.709,165.914 187.5,166.5C 189.39,167.424 190.89,168.757 192,170.5C 192.718,169.549 193.551,169.383 194.5,170C 196,171.5 197.5,173 199,174.5C 199.807,170.551 200.307,170.551 200.5,174.5C 201.873,174.343 203.207,174.51 204.5,175C 205.551,176.385 206.884,177.385 208.5,178C 208.167,178.333 207.833,178.667 207.5,179C 211.451,179.536 214.951,181.036 218,183.5C 220.129,182.137 220.629,182.471 219.5,184.5C 222.431,184.829 224.931,186.495 227,189.5C 227.333,189.167 227.667,188.833 228,188.5C 228.918,190.632 230.251,191.299 232,190.5C 233.101,192.394 234.434,193.061 236,192.5C 238,193.167 239.333,194.5 240,196.5C 240.414,196.043 240.914,195.709 241.5,195.5C 242.833,196.5 244.167,197.5 245.5,198.5C 246.086,198.291 246.586,197.957 247,197.5C 247.439,200.299 248.772,201.299 251,200.5C 252.351,202.019 253.851,203.352 255.5,204.5C 256.086,204.291 256.586,203.957 257,203.5C 261.481,205.753 265.481,208.753 269,212.5C 269.414,212.043 269.914,211.709 270.5,211.5C 272.554,213.194 274.888,214.361 277.5,215C 278.191,216.067 278.691,217.234 279,218.5C 279.333,217.833 279.667,217.167 280,216.5C 282.133,217.255 283.8,218.588 285,220.5C 285.333,220.167 285.667,219.833 286,219.5C 289.31,221.146 291.977,223.48 294,226.5C 297.101,225.05 299.101,226.05 300,229.5C 300.333,229.167 300.667,228.833 301,228.5C 302.991,230.905 305.324,231.572 308,230.5C 309.621,232.493 311.287,234.493 313,236.5C 313.414,236.043 313.914,235.709 314.5,235.5C 315.77,236.562 316.937,237.562 318,238.5C 318.333,238.167 318.667,237.833 319,237.5C 321.022,240.547 323.855,242.214 327.5,242.5C 333.638,246.263 339.805,249.929 346,253.5C 349.276,253.984 352.276,255.651 355,258.5C 355.333,258.167 355.667,257.833 356,257.5C 358.398,260.975 361.731,262.975 366,263.5C 367.221,264.272 368.221,265.272 369,266.5C 372.86,266.611 376.527,268.611 380,272.5C 381.333,272.5 382.667,272.5 384,272.5C 387.112,274.839 389.945,276.839 392.5,278.5C 390.93,284.891 388.596,290.891 385.5,296.5C 313.897,258.207 242.564,219.54 171.5,180.5C 172.47,173.581 174.804,167.248 178.5,161.5 Z"/></g>
<g><path style="opacity:0.999" fill="#dd4718" d="M 184.5,147.5 C 185.072,149.255 185.906,150.922 187,152.5C 188.299,152.034 189.799,152.034 191.5,152.5C 191.351,153.552 191.517,154.552 192,155.5C 193.333,155.5 194.667,155.5 196,155.5C 196.359,158.544 197.026,158.878 198,156.5C 199.333,157.833 200.667,159.167 202,160.5C 202.414,160.043 202.914,159.709 203.5,159.5C 207.071,162.078 210.571,164.745 214,167.5C 214.333,167.167 214.667,166.833 215,166.5C 216.57,167.614 217.903,168.947 219,170.5C 219.333,170.167 219.667,169.833 220,169.5C 223.981,171.546 227.481,173.546 230.5,175.5C 231.086,175.291 231.586,174.957 232,174.5C 232.442,176.679 233.442,177.345 235,176.5C 235.617,177.449 235.451,178.282 234.5,179C 235.549,179.492 236.549,179.326 237.5,178.5C 238.696,178.846 238.696,179.346 237.5,180C 242.317,181.496 246.651,183.829 250.5,187C 254.647,186.815 257.48,188.648 259,192.5C 259.414,192.043 259.914,191.709 260.5,191.5C 261.906,192.951 263.406,194.284 265,195.5C 266.333,195.5 267.667,195.5 269,195.5C 269.374,196.416 269.874,197.25 270.5,198C 277.113,200.184 283.113,203.517 288.5,208C 290.134,208.494 291.801,208.66 293.5,208.5C 293.119,210.942 293.786,211.609 295.5,210.5C 300.509,213.78 305.676,216.78 311,219.5C 311.333,219.167 311.667,218.833 312,218.5C 313.066,221.563 315.233,223.063 318.5,223C 320.369,224.501 322.203,226.001 324,227.5C 324.333,226.833 324.667,226.167 325,225.5C 325.284,227.886 326.284,228.552 328,227.5C 329.636,229.55 331.802,230.55 334.5,230.5C 334.351,231.552 334.517,232.552 335,233.5C 335.333,233.167 335.667,232.833 336,232.5C 338.453,234.035 340.953,235.702 343.5,237.5C 346.087,237.183 347.92,238.517 349,241.5C 349.414,241.043 349.914,240.709 350.5,240.5C 352.792,241.79 354.792,243.457 356.5,245.5C 357.086,245.291 357.586,244.957 358,244.5C 360.683,245.675 363.017,247.342 365,249.5C 365.333,249.167 365.667,248.833 366,248.5C 366.308,249.308 366.808,249.975 367.5,250.5C 371.718,252.537 376.051,254.371 380.5,256C 380.167,256.333 379.833,256.667 379.5,257C 384.465,258.815 389.465,261.315 394.5,264.5C 395.429,265.689 395.762,267.022 395.5,268.5C 394.87,272.048 393.87,275.381 392.5,278.5C 389.945,276.839 387.112,274.839 384,272.5C 382.667,272.5 381.333,272.5 380,272.5C 376.527,268.611 372.86,266.611 369,266.5C 368.221,265.272 367.221,264.272 366,263.5C 361.731,262.975 358.398,260.975 356,257.5C 355.667,257.833 355.333,258.167 355,258.5C 352.276,255.651 349.276,253.984 346,253.5C 339.805,249.929 333.638,246.263 327.5,242.5C 323.855,242.214 321.022,240.547 319,237.5C 318.667,237.833 318.333,238.167 318,238.5C 316.937,237.562 315.77,236.562 314.5,235.5C 313.914,235.709 313.414,236.043 313,236.5C 311.287,234.493 309.621,232.493 308,230.5C 305.324,231.572 302.991,230.905 301,228.5C 300.667,228.833 300.333,229.167 300,229.5C 299.101,226.05 297.101,225.05 294,226.5C 291.977,223.48 289.31,221.146 286,219.5C 285.667,219.833 285.333,220.167 285,220.5C 283.8,218.588 282.133,217.255 280,216.5C 279.667,217.167 279.333,217.833 279,218.5C 278.691,217.234 278.191,216.067 277.5,215C 274.888,214.361 272.554,213.194 270.5,211.5C 269.914,211.709 269.414,212.043 269,212.5C 265.481,208.753 261.481,205.753 257,203.5C 256.586,203.957 256.086,204.291 255.5,204.5C 253.851,203.352 252.351,202.019 251,200.5C 248.772,201.299 247.439,200.299 247,197.5C 246.586,197.957 246.086,198.291 245.5,198.5C 244.167,197.5 242.833,196.5 241.5,195.5C 240.914,195.709 240.414,196.043 240,196.5C 239.333,194.5 238,193.167 236,192.5C 234.434,193.061 233.101,192.394 232,190.5C 230.251,191.299 228.918,190.632 228,188.5C 227.667,188.833 227.333,189.167 227,189.5C 224.931,186.495 222.431,184.829 219.5,184.5C 220.629,182.471 220.129,182.137 218,183.5C 214.951,181.036 211.451,179.536 207.5,179C 207.833,178.667 208.167,178.333 208.5,178C 206.884,177.385 205.551,176.385 204.5,175C 203.207,174.51 201.873,174.343 200.5,174.5C 200.307,170.551 199.807,170.551 199,174.5C 197.5,173 196,171.5 194.5,170C 193.551,169.383 192.718,169.549 192,170.5C 190.89,168.757 189.39,167.424 187.5,166.5C 187.709,165.914 188.043,165.414 188.5,165C 187.256,164.544 186.423,165.044 186,166.5C 185.683,164.699 185.016,164.366 184,165.5C 182.588,163.548 180.755,162.215 178.5,161.5C 180.167,157.5 181.833,153.5 183.5,149.5C 183.328,148.508 183.662,147.842 184.5,147.5 Z"/></g>
<g><path style="opacity:0.999" fill="#e68058" d="M 11.5,146.5 C 14.4701,147.549 17.4701,148.716 20.5,150C 42.6367,162.02 65.4701,174.52 89,187.5C 89.3826,186.944 89.8826,186.611 90.5,186.5C 90.0371,189.482 89.7038,192.482 89.5,195.5C 88.6981,196.952 88.1981,198.618 88,200.5C 69.7537,189.892 51.087,179.225 32,168.5C 31.6667,168.833 31.3333,169.167 31,169.5C 28.8957,167.262 26.5624,166.262 24,166.5C 23.4169,164.998 22.5836,163.665 21.5,162.5C 20.914,162.709 20.414,163.043 20,163.5C 17.3308,160.836 14.1641,159.002 10.5,158C 9.66337,156.989 9.33003,155.822 9.5,154.5C 9.56513,151.572 10.2318,148.905 11.5,146.5 Z"/></g>
<g><path style="opacity:0.999" fill="#da4117" d="M 190.5,137.5 C 190.833,137.5 191.167,137.5 191.5,137.5C 193.126,138.924 194.459,140.758 195.5,143C 199.132,142.839 202.299,144.339 205,147.5C 205.333,147.167 205.667,146.833 206,146.5C 213.213,151.537 221.213,156.204 230,160.5C 230.333,160.167 230.667,159.833 231,159.5C 231.333,160.5 231.667,161.5 232,162.5C 232.718,161.549 233.551,161.383 234.5,162C 235.763,164.386 237.597,166.219 240,167.5C 242.09,166.209 243.424,166.876 244,169.5C 245.16,167.203 246.16,167.536 247,170.5C 248,170.5 249,170.5 250,170.5C 250.75,171.126 251.584,171.626 252.5,172C 252.167,172.333 251.833,172.667 251.5,173C 252.76,174.113 253.927,174.28 255,173.5C 255.368,174.91 256.201,175.91 257.5,176.5C 258.773,176.254 259.94,176.254 261,176.5C 262.667,178.167 264.333,179.833 266,181.5C 267.749,180.701 269.082,181.368 270,183.5C 270.333,183.167 270.667,182.833 271,182.5C 272.107,185.492 273.774,186.159 276,184.5C 278.657,186.822 281.323,189.155 284,191.5C 284.414,191.043 284.914,190.709 285.5,190.5C 286.333,191.5 287.167,192.5 288,193.5C 288.333,193.167 288.667,192.833 289,192.5C 291.408,194.667 293.908,195.834 296.5,196C 296.167,196.333 295.833,196.667 295.5,197C 297.833,198 300.167,199 302.5,200C 302.167,200.333 301.833,200.667 301.5,201C 303.134,201.494 304.801,201.66 306.5,201.5C 306.413,204.598 306.913,204.932 308,202.5C 311.297,205.213 314.297,207.547 317,209.5C 317.333,208.833 317.667,208.167 318,207.5C 320.7,209.159 323.367,211.492 326,214.5C 326.667,211.833 327.333,211.833 328,214.5C 328.333,214.167 328.667,213.833 329,213.5C 341.912,222.056 355.078,229.223 368.5,235C 367.66,236.666 368.16,236.833 370,235.5C 371.612,235.952 372.612,237.285 373,239.5C 373.333,239.167 373.667,238.833 374,238.5C 380.95,242.834 387.95,247.167 395,251.5C 396.299,251.034 397.799,251.034 399.5,251.5C 398.913,257.456 397.579,263.122 395.5,268.5C 395.762,267.022 395.429,265.689 394.5,264.5C 389.465,261.315 384.465,258.815 379.5,257C 379.833,256.667 380.167,256.333 380.5,256C 376.051,254.371 371.718,252.537 367.5,250.5C 366.808,249.975 366.308,249.308 366,248.5C 365.667,248.833 365.333,249.167 365,249.5C 363.017,247.342 360.683,245.675 358,244.5C 357.586,244.957 357.086,245.291 356.5,245.5C 354.792,243.457 352.792,241.79 350.5,240.5C 349.914,240.709 349.414,241.043 349,241.5C 347.92,238.517 346.087,237.183 343.5,237.5C 340.953,235.702 338.453,234.035 336,232.5C 335.667,232.833 335.333,233.167 335,233.5C 334.517,232.552 334.351,231.552 334.5,230.5C 331.802,230.55 329.636,229.55 328,227.5C 326.284,228.552 325.284,227.886 325,225.5C 324.667,226.167 324.333,226.833 324,227.5C 322.203,226.001 320.369,224.501 318.5,223C 315.233,223.063 313.066,221.563 312,218.5C 311.667,218.833 311.333,219.167 311,219.5C 305.676,216.78 300.509,213.78 295.5,210.5C 293.786,211.609 293.119,210.942 293.5,208.5C 291.801,208.66 290.134,208.494 288.5,208C 283.113,203.517 277.113,200.184 270.5,198C 269.874,197.25 269.374,196.416 269,195.5C 267.667,195.5 266.333,195.5 265,195.5C 263.406,194.284 261.906,192.951 260.5,191.5C 259.914,191.709 259.414,192.043 259,192.5C 257.48,188.648 254.647,186.815 250.5,187C 246.651,183.829 242.317,181.496 237.5,180C 238.696,179.346 238.696,178.846 237.5,178.5C 236.549,179.326 235.549,179.492 234.5,179C 235.451,178.282 235.617,177.449 235,176.5C 233.442,177.345 232.442,176.679 232,174.5C 231.586,174.957 231.086,175.291 230.5,175.5C 227.481,173.546 223.981,171.546 220,169.5C 219.667,169.833 219.333,170.167 219,170.5C 217.903,168.947 216.57,167.614 215,166.5C 214.667,166.833 214.333,167.167 214,167.5C 210.571,164.745 207.071,162.078 203.5,159.5C 202.914,159.709 202.414,160.043 202,160.5C 200.667,159.167 199.333,157.833 198,156.5C 197.026,158.878 196.359,158.544 196,155.5C 194.667,155.5 193.333,155.5 192,155.5C 191.517,154.552 191.351,153.552 191.5,152.5C 189.799,152.034 188.299,152.034 187,152.5C 185.906,150.922 185.072,149.255 184.5,147.5C 186.588,145.664 187.921,143.331 188.5,140.5C 189.906,140.027 190.573,139.027 190.5,137.5 Z"/></g>
<g><path style="opacity:0.007" fill="#121212" d="M 188.5,140.5 C 187.921,143.331 186.588,145.664 184.5,147.5C 184.555,144.386 185.888,142.052 188.5,140.5 Z"/></g>
<g><path style="opacity:0.999" fill="#e4774b" d="M 16.5,130.5 C 16.4287,133.024 17.4287,135.024 19.5,136.5C 43.2361,149.117 66.7361,162.117 90,175.5C 90.3826,174.944 90.8826,174.611 91.5,174.5C 91.3542,178.519 91.0209,182.519 90.5,186.5C 89.8826,186.611 89.3826,186.944 89,187.5C 65.4701,174.52 42.6367,162.02 20.5,150C 17.4701,148.716 14.4701,147.549 11.5,146.5C 12.3904,140.834 14.057,135.5 16.5,130.5 Z"/></g>
<g><path style="opacity:0.008" fill="#1c1c1c" d="M 190.5,137.5 C 190.573,139.027 189.906,140.027 188.5,140.5C 188.427,138.973 189.094,137.973 190.5,137.5 Z"/></g>
<g><path style="opacity:0.016" fill="#3f3f3f" d="M 190.5,135.5 C 191.167,135.5 191.833,135.5 192.5,135.5C 192.167,136.167 191.833,136.833 191.5,137.5C 191.167,137.5 190.833,137.5 190.5,137.5C 190.5,136.833 190.5,136.167 190.5,135.5 Z"/></g>
<g><path style="opacity:0.004" fill="#fefffe" d="M 192.5,133.5 C 192.5,133.833 192.5,134.167 192.5,134.5C 192.5,134.833 192.5,135.167 192.5,135.5C 191.833,135.5 191.167,135.5 190.5,135.5C 190.833,134.5 191.5,133.833 192.5,133.5 Z"/></g>
<g><path style="opacity:0.004" fill="#404040" d="M 194.5,131.5 C 194.068,132.71 193.401,133.71 192.5,134.5C 192.5,134.167 192.5,133.833 192.5,133.5C 192.5,132.167 193.167,131.5 194.5,131.5 Z"/></g>
<g><path style="opacity:0.998" fill="#e46d3f" d="M 19.5,122.5 C 19.9371,124.074 20.9371,125.241 22.5,126C 46.2566,138.391 70.2566,151.225 94.5,164.5C 93.4905,167.924 92.4905,171.257 91.5,174.5C 90.8826,174.611 90.3826,174.944 90,175.5C 66.7361,162.117 43.2361,149.117 19.5,136.5C 17.4287,135.024 16.4287,133.024 16.5,130.5C 16.9802,127.557 17.9802,124.89 19.5,122.5 Z"/></g>
<g><path style="opacity:0.999" fill="#d83b16" d="M 196.5,128.5 C 197.75,128.577 198.583,129.244 199,130.5C 199.667,127.833 200.333,127.833 201,130.5C 201.333,130.167 201.667,129.833 202,129.5C 202.465,130.931 203.299,132.097 204.5,133C 210.998,134.497 216.498,137.663 221,142.5C 222.635,141.151 224.135,141.318 225.5,143C 223.099,143.805 223.266,144.638 226,145.5C 226.333,145.167 226.667,144.833 227,144.5C 228.789,146.229 230.956,146.896 233.5,146.5C 233.413,149.598 233.913,149.932 235,147.5C 235.419,148.672 236.085,149.672 237,150.5C 238,150.5 239,150.5 240,150.5C 242.956,152.489 245.789,154.656 248.5,157C 249.784,157.684 250.951,157.517 252,156.5C 252.667,157.833 253.333,159.167 254,160.5C 264.75,163.882 274.75,169.215 284,176.5C 285.84,175.167 286.34,175.334 285.5,177C 291.72,179.107 296.887,181.94 301,185.5C 302.558,184.655 303.558,185.321 304,187.5C 305.268,187.384 306.602,187.051 308,186.5C 308.5,187.667 309.333,188.5 310.5,189C 309.398,191.391 310.064,191.891 312.5,190.5C 314.449,192.223 316.449,193.89 318.5,195.5C 320.07,195.306 321.57,195.306 323,195.5C 323.442,197.679 324.442,198.345 326,197.5C 326.065,199.883 326.898,200.55 328.5,199.5C 330.559,200.567 332.392,201.9 334,203.5C 336.228,202.701 337.561,203.701 338,206.5C 339.049,205.483 340.216,205.316 341.5,206C 341.167,206.333 340.833,206.667 340.5,207C 343.284,208.673 346.617,210.006 350.5,211C 351.035,213.109 352.035,213.609 353.5,212.5C 354.333,213.5 355.167,214.5 356,215.5C 356.333,215.167 356.667,214.833 357,214.5C 358.667,215.833 360.333,217.167 362,218.5C 362.333,218.167 362.667,217.833 363,217.5C 363.724,219.959 365.057,220.959 367,220.5C 369.571,221.401 371.904,222.734 374,224.5C 374.333,224.167 374.667,223.833 375,223.5C 377.328,224.486 379.328,226.486 381,229.5C 382.049,228.483 383.216,228.316 384.5,229C 387.669,231.397 390.836,233.897 394,236.5C 396.399,236.028 398.399,237.028 400,239.5C 400.494,241.134 400.66,242.801 400.5,244.5C 400.702,246.95 400.369,249.283 399.5,251.5C 397.799,251.034 396.299,251.034 395,251.5C 387.95,247.167 380.95,242.834 374,238.5C 373.667,238.833 373.333,239.167 373,239.5C 372.612,237.285 371.612,235.952 370,235.5C 368.16,236.833 367.66,236.666 368.5,235C 355.078,229.223 341.912,222.056 329,213.5C 328.667,213.833 328.333,214.167 328,214.5C 327.333,211.833 326.667,211.833 326,214.5C 323.367,211.492 320.7,209.159 318,207.5C 317.667,208.167 317.333,208.833 317,209.5C 314.297,207.547 311.297,205.213 308,202.5C 306.913,204.932 306.413,204.598 306.5,201.5C 304.801,201.66 303.134,201.494 301.5,201C 301.833,200.667 302.167,200.333 302.5,200C 300.167,199 297.833,198 295.5,197C 295.833,196.667 296.167,196.333 296.5,196C 293.908,195.834 291.408,194.667 289,192.5C 288.667,192.833 288.333,193.167 288,193.5C 287.167,192.5 286.333,191.5 285.5,190.5C 284.914,190.709 284.414,191.043 284,191.5C 281.323,189.155 278.657,186.822 276,184.5C 273.774,186.159 272.107,185.492 271,182.5C 270.667,182.833 270.333,183.167 270,183.5C 269.082,181.368 267.749,180.701 266,181.5C 264.333,179.833 262.667,178.167 261,176.5C 259.94,176.254 258.773,176.254 257.5,176.5C 256.201,175.91 255.368,174.91 255,173.5C 253.927,174.28 252.76,174.113 251.5,173C 251.833,172.667 252.167,172.333 252.5,172C 251.584,171.626 250.75,171.126 250,170.5C 249,170.5 248,170.5 247,170.5C 246.16,167.536 245.16,167.203 244,169.5C 243.424,166.876 242.09,166.209 240,167.5C 237.597,166.219 235.763,164.386 234.5,162C 233.551,161.383 232.718,161.549 232,162.5C 231.667,161.5 231.333,160.5 231,159.5C 230.667,159.833 230.333,160.167 230,160.5C 221.213,156.204 213.213,151.537 206,146.5C 205.667,146.833 205.333,147.167 205,147.5C 202.299,144.339 199.132,142.839 195.5,143C 194.459,140.758 193.126,138.924 191.5,137.5C 191.833,136.833 192.167,136.167 192.5,135.5C 192.5,135.167 192.5,134.833 192.5,134.5C 193.401,133.71 194.068,132.71 194.5,131.5C 194.427,129.973 195.094,128.973 196.5,128.5 Z"/></g>
<g><path style="opacity:0.004" fill="#dddddd" d="M 116.5,124.5 C 116.672,125.492 116.338,126.158 115.5,126.5C 114.561,125.673 114.895,125.006 116.5,124.5 Z"/></g>
<g><path style="opacity:0.008" fill="#000000" d="M 199.5,123.5 C 200.439,124.327 200.105,124.994 198.5,125.5C 198.328,124.508 198.662,123.842 199.5,123.5 Z"/></g>
<g><path style="opacity:0.012" fill="#afafaf" d="M 202.5,119.5 C 202.573,121.027 201.906,122.027 200.5,122.5C 200.427,120.973 201.094,119.973 202.5,119.5 Z"/></g>
<g><path style="opacity:0.998" fill="#e36432" d="M 24.5,111.5 C 27.7088,114.428 31.2088,117.095 35,119.5C 35.3333,119.167 35.6667,118.833 36,118.5C 55.7477,130.025 76.2477,141.358 97.5,152.5C 96.0966,156.381 95.0966,160.381 94.5,164.5C 70.2566,151.225 46.2566,138.391 22.5,126C 20.9371,125.241 19.9371,124.074 19.5,122.5C 20.3824,118.407 22.049,114.74 24.5,111.5 Z"/></g>
<g><path style="opacity:0.999" fill="#d53514" d="M 402.5,228.5 C 402.745,234.084 402.078,239.417 400.5,244.5C 400.66,242.801 400.494,241.134 400,239.5C 398.399,237.028 396.399,236.028 394,236.5C 390.836,233.897 387.669,231.397 384.5,229C 383.216,228.316 382.049,228.483 381,229.5C 379.328,226.486 377.328,224.486 375,223.5C 374.667,223.833 374.333,224.167 374,224.5C 371.904,222.734 369.571,221.401 367,220.5C 365.057,220.959 363.724,219.959 363,217.5C 362.667,217.833 362.333,218.167 362,218.5C 360.333,217.167 358.667,215.833 357,214.5C 356.667,214.833 356.333,215.167 356,215.5C 355.167,214.5 354.333,213.5 353.5,212.5C 352.035,213.609 351.035,213.109 350.5,211C 346.617,210.006 343.284,208.673 340.5,207C 340.833,206.667 341.167,206.333 341.5,206C 340.216,205.316 339.049,205.483 338,206.5C 337.561,203.701 336.228,202.701 334,203.5C 332.392,201.9 330.559,200.567 328.5,199.5C 326.898,200.55 326.065,199.883 326,197.5C 324.442,198.345 323.442,197.679 323,195.5C 321.57,195.306 320.07,195.306 318.5,195.5C 316.449,193.89 314.449,192.223 312.5,190.5C 310.064,191.891 309.398,191.391 310.5,189C 309.333,188.5 308.5,187.667 308,186.5C 306.602,187.051 305.268,187.384 304,187.5C 303.558,185.321 302.558,184.655 301,185.5C 296.887,181.94 291.72,179.107 285.5,177C 286.34,175.334 285.84,175.167 284,176.5C 274.75,169.215 264.75,163.882 254,160.5C 253.333,159.167 252.667,157.833 252,156.5C 250.951,157.517 249.784,157.684 248.5,157C 245.789,154.656 242.956,152.489 240,150.5C 239,150.5 238,150.5 237,150.5C 236.085,149.672 235.419,148.672 235,147.5C 233.913,149.932 233.413,149.598 233.5,146.5C 230.956,146.896 228.789,146.229 227,144.5C 226.667,144.833 226.333,145.167 226,145.5C 223.266,144.638 223.099,143.805 225.5,143C 224.135,141.318 222.635,141.151 221,142.5C 216.498,137.663 210.998,134.497 204.5,133C 203.299,132.097 202.465,130.931 202,129.5C 201.667,129.833 201.333,130.167 201,130.5C 200.333,127.833 199.667,127.833 199,130.5C 198.583,129.244 197.75,128.577 196.5,128.5C 196.427,126.973 197.094,125.973 198.5,125.5C 200.105,124.994 200.439,124.327 199.5,123.5C 199.5,122.833 199.833,122.5 200.5,122.5C 201.906,122.027 202.573,121.027 202.5,119.5C 203.167,119.167 203.833,118.833 204.5,118.5C 205.496,118.586 206.329,118.252 207,117.5C 209.698,119.447 212.698,121.781 216,124.5C 218.515,125.115 220.848,126.115 223,127.5C 223.333,127.167 223.667,126.833 224,126.5C 224.333,127.833 224.667,129.167 225,130.5C 226.46,128.578 228.127,127.911 230,128.5C 230.589,130.863 232.089,131.863 234.5,131.5C 234.351,132.552 234.517,133.552 235,134.5C 235.333,134.167 235.667,133.833 236,133.5C 238.326,134.813 239.659,136.813 240,139.5C 240.333,138.833 240.667,138.167 241,137.5C 242.566,136.939 243.899,137.606 245,139.5C 245.333,139.167 245.667,138.833 246,138.5C 246.903,139.701 248.069,140.535 249.5,141C 248.167,141.667 248.167,142.333 249.5,143C 250.549,143.492 251.549,143.326 252.5,142.5C 253.251,143.376 253.751,144.376 254,145.5C 254.333,144.833 254.667,144.167 255,143.5C 255.923,144.759 256.757,146.092 257.5,147.5C 257.833,146.833 258.167,146.167 258.5,145.5C 260.019,146.851 261.352,148.351 262.5,150C 264.126,149.805 265.793,149.805 267.5,150C 268.938,151.569 270.438,153.069 272,154.5C 272.423,153.044 273.256,152.544 274.5,153C 273.549,153.718 273.383,154.551 274,155.5C 275.016,154.366 275.683,154.699 276,156.5C 276.718,155.549 277.551,155.383 278.5,156C 279.787,157.41 280.954,158.91 282,160.5C 282.718,159.549 283.551,159.383 284.5,160C 283.216,161.297 283.383,162.464 285,163.5C 286.835,162.881 289.001,162.714 291.5,163C 290.833,163.333 290.167,163.667 289.5,164C 290.253,165.487 291.086,165.654 292,164.5C 292.981,167.655 294.315,167.988 296,165.5C 297.243,167.833 298.909,168.5 301,167.5C 303.096,168.715 302.929,169.549 300.5,170C 301.931,170.465 303.097,171.299 304,172.5C 304.333,172.167 304.667,171.833 305,171.5C 308.616,174.977 312.616,176.977 317,177.5C 317.667,180.167 318.333,180.167 319,177.5C 319.249,178.624 319.749,179.624 320.5,180.5C 323.779,181.052 326.279,182.719 328,185.5C 329,185.167 330,184.833 331,184.5C 332.952,186.894 335.452,188.394 338.5,189C 339.126,189.75 339.626,190.584 340,191.5C 340.741,190.359 341.575,190.359 342.5,191.5C 343.243,192.908 344.077,194.241 345,195.5C 344.923,194.262 345.089,193.262 345.5,192.5C 346.48,193.981 347.647,195.315 349,196.5C 351.399,196.028 353.399,197.028 355,199.5C 355.333,199.167 355.667,198.833 356,198.5C 356.359,201.544 357.026,201.878 358,199.5C 358.29,201.044 358.956,202.377 360,203.5C 360.333,202.833 360.667,202.167 361,201.5C 364.385,202.956 367.385,204.956 370,207.5C 370.604,205.314 371.77,205.148 373.5,207C 372.289,207.893 372.289,208.726 373.5,209.5C 374.086,209.291 374.586,208.957 375,208.5C 375.997,210.166 377.497,211.666 379.5,213C 385.791,214.279 391.458,216.945 396.5,221C 397.833,221.667 397.833,222.333 396.5,223C 400.305,222.974 402.305,224.808 402.5,228.5 Z"/></g>
<g><path style="opacity:0.075" fill="#7a5145" d="M 206.5,114.5 C 205.833,115.833 205.167,117.167 204.5,118.5C 203.833,118.833 203.167,119.167 202.5,119.5C 203.136,117.205 204.469,115.539 206.5,114.5 Z"/></g>
<g><path style="opacity:0.004" fill="#cacaca" d="M 123.5,115.5 C 123.167,116.5 122.5,117.167 121.5,117.5C 121.062,117.565 120.728,117.399 120.5,117C 121.333,116.167 122.167,115.333 123,114.5C 123.399,114.728 123.565,115.062 123.5,115.5 Z"/></g>
<g><path style="opacity:0.999" fill="#edd2c3" d="M 276.5,402.5 C 272.784,404.405 268.784,405.739 264.5,406.5C 255.599,400.92 246.099,395.253 236,389.5C 235.667,389.833 235.333,390.167 235,390.5C 233.486,388.234 231.319,387.068 228.5,387C 228.833,386.667 229.167,386.333 229.5,386C 225.211,384.523 220.877,382.356 216.5,379.5C 215.914,379.709 215.414,380.043 215,380.5C 213.279,378.289 211.279,376.289 209,374.5C 208.667,374.833 208.333,375.167 208,375.5C 204.781,373.355 201.448,371.355 198,369.5C 194.072,368.327 190.405,365.994 187,362.5C 186.15,363.424 185.15,363.424 184,362.5C 177.279,358.493 170.612,354.493 164,350.5C 163.667,351.167 163.333,351.833 163,352.5C 162.751,351.376 162.251,350.376 161.5,349.5C 133.598,334.546 105.598,319.546 77.5,304.5C 76.6667,303.5 75.8333,302.5 75,301.5C 74.6667,301.833 74.3333,302.167 74,302.5C 60.2748,294.483 46.6081,287.149 33,280.5C 25.628,276.44 18.4614,272.106 11.5,267.5C 10.7025,267.957 10.3691,268.624 10.5,269.5C 9.08699,266.781 8.42032,263.781 8.5,260.5C 8.5,259.5 8.5,258.5 8.5,257.5C 19.3942,264.114 30.7275,269.948 42.5,275C 45.417,276.299 47.917,278.133 50,280.5C 50.3333,280.167 50.6667,279.833 51,279.5C 67.0867,289.892 83.9201,299.059 101.5,307C 102.5,308 103.5,309 104.5,310C 124.601,319.78 143.767,330.28 162,341.5C 162.333,341.167 162.667,340.833 163,340.5C 164.101,342.394 165.434,343.061 167,342.5C 185.203,353.843 203.703,364.01 222.5,373C 227.538,377.128 233.204,380.128 239.5,382C 242.824,385.785 246.657,387.952 251,388.5C 258.797,393.665 267.297,398.332 276.5,402.5 Z"/></g>
<g><path style="opacity:0.999" fill="#e9a98e" d="M 219.5,317.5 C 227.241,321.026 234.741,325.026 242,329.5C 242.333,329.167 242.667,328.833 243,328.5C 247.963,331.82 252.963,335.154 258,338.5C 259,338.5 260,338.5 261,338.5C 268.685,344.002 276.352,348.669 284,352.5C 284.333,352.167 284.667,351.833 285,351.5C 287.449,353.732 290.116,355.732 293,357.5C 293.333,357.167 293.667,356.833 294,356.5C 303.949,362.833 314.449,368.833 325.5,374.5C 322.571,377.636 319.238,380.303 315.5,382.5C 306.959,377.457 298.459,372.123 290,366.5C 289.667,366.833 289.333,367.167 289,367.5C 286.613,365.83 284.279,364.163 282,362.5C 281,362.5 280,362.5 279,362.5C 262.875,353.051 246.375,343.551 229.5,334C 227.807,333.516 226.473,334.016 225.5,335.5C 225.649,332.393 225.149,329.393 224,326.5C 222.239,323.589 220.739,320.589 219.5,317.5 Z"/></g>
<g><path style="opacity:0.996" fill="#eab49c" d="M 315.5,382.5 C 311.801,385.35 307.801,387.683 303.5,389.5C 299.538,386.218 295.205,383.384 290.5,381C 266.448,368.645 242.782,355.812 219.5,342.5C 220.5,341.833 221.5,341.167 222.5,340.5C 224.727,339.599 225.727,337.933 225.5,335.5C 226.473,334.016 227.807,333.516 229.5,334C 246.375,343.551 262.875,353.051 279,362.5C 280,362.5 281,362.5 282,362.5C 284.279,364.163 286.613,365.83 289,367.5C 289.333,367.167 289.667,366.833 290,366.5C 298.459,372.123 306.959,377.457 315.5,382.5 Z"/></g>
<g><path style="opacity:0.996" fill="#ebbfab" d="M 219.5,342.5 C 242.782,355.812 266.448,368.645 290.5,381C 295.205,383.384 299.538,386.218 303.5,389.5C 297.644,393.596 291.311,396.93 284.5,399.5C 282.218,396.594 279.385,394.261 276,392.5C 275.667,392.833 275.333,393.167 275,393.5C 272.516,392.114 270.183,390.447 268,388.5C 267.667,388.833 267.333,389.167 267,389.5C 265.139,387.701 263.139,386.035 261,384.5C 260.667,384.833 260.333,385.167 260,385.5C 256.019,382.457 251.853,379.624 247.5,377C 236.895,372.029 226.562,366.696 216.5,361C 215.965,358.891 214.965,358.391 213.5,359.5C 204.126,353.959 194.792,348.626 185.5,343.5C 196.919,345.161 208.253,344.828 219.5,342.5 Z"/></g>
<g><path style="opacity:0.004" fill="#e5e5e5" d="M 47.5,358.5 C 49.1436,358.81 50.1436,359.81 50.5,361.5C 48.8564,361.19 47.8564,360.19 47.5,358.5 Z"/></g>
<g><path style="opacity:0.004" fill="#dddddd" d="M 56.5,367.5 C 54.5956,367.262 53.2623,366.262 52.5,364.5C 53.1174,364.389 53.6174,364.056 54,363.5C 54.6622,364.984 55.4955,366.317 56.5,367.5 Z"/></g>
<g><path style="opacity:0.004" fill="#bdbdbd" d="M 68.5,378.5 C 67.5084,378.672 66.8417,378.338 66.5,377.5C 67.3274,376.561 67.9941,376.895 68.5,378.5 Z"/></g>
<g><path style="opacity:0.004" fill="#dddddd" d="M 100.5,400.5 C 99.5084,400.672 98.8417,400.338 98.5,399.5C 99.3274,398.561 99.9941,398.895 100.5,400.5 Z"/></g>
</svg>
